<?xml version="1.0" encoding="UTF-8"?>
<svg width="700pt" height="700pt" version="1.1" viewBox="0 0 700 700" xmlns="http://www.w3.org/2000/svg">
 <path d="m78.262 271.53c-1.0508 2.5664-1.6328 5.3672-1.6328 8.2148s0.58203 5.625 1.6328 8.2148c1.0977 2.5898 2.6602 4.9453 4.6211 6.9062l169.63 169.56c8.3281 8.3281 21.863 8.3281 30.191 0 8.3281-8.3281 8.3281-21.84 0-30.172l-133.21-133.16h452.6c11.785 0 21.328-9.5664 21.328-21.352 0-11.785-9.543-21.352-21.328-21.352l-452.62 0.003906 133.21-133.09c8.3281-8.3281 8.3281-21.887 0-30.215-4.1523-4.1797-9.6367-6.2578-15.074-6.2578-5.4844 0-10.941 2.0781-15.121 6.2305l-169.66 169.59c-0.39844 0.39844-0.51172 0.93359-0.88672 1.3516-1.4453 1.6602-2.7969 3.4336-3.6836 5.5352z"/>
</svg>
