<?xml version="1.0" encoding="UTF-8"?>
<svg width="700pt" height="700pt" version="1.1" viewBox="0 0 700 700" xmlns="http://www.w3.org/2000/svg" xmlns:xlink="http://www.w3.org/1999/xlink">
 <defs>
  <symbol id="n" overflow="visible">
   <path d="m34-2.0312c-1.75 0.90625-3.5781 1.5898-5.4844 2.0469-1.8984 0.46875-3.875 0.70312-5.9375 0.70312-6.168 0-11.055-1.7188-14.656-5.1562-3.5938-3.4453-5.3906-8.125-5.3906-14.031s1.7969-10.582 5.3906-14.031c3.6016-3.4453 8.4883-5.1719 14.656-5.1719 2.0625 0 4.0391 0.23438 5.9375 0.70312 1.9062 0.46094 3.7344 1.1406 5.4844 2.0469v7.6562c-1.7734-1.1953-3.5156-2.0781-5.2344-2.6406s-3.5273-0.84375-5.4219-0.84375c-3.4062 0-6.0859 1.0938-8.0312 3.2812-1.9492 2.1797-2.9219 5.1797-2.9219 9 0 3.8242 0.97266 6.8281 2.9219 9.0156 1.9453 2.1797 4.625 3.2656 8.0312 3.2656 1.8945 0 3.7031-0.28125 5.4219-0.84375s3.4609-1.4453 5.2344-2.6562z"/>
  </symbol>
  <symbol id="i" overflow="visible">
   <path d="m24.875-20.203c-0.77344-0.35156-1.543-0.61719-2.3125-0.79688-0.77344-0.17578-1.543-0.26562-2.3125-0.26562-2.2812 0-4.0391 0.73438-5.2656 2.2031-1.2305 1.4609-1.8438 3.5547-1.8438 6.2812v12.781h-8.875v-27.75h8.875v4.5625c1.1328-1.8203 2.4414-3.1484 3.9219-3.9844 1.4766-0.83203 3.25-1.25 5.3125-1.25 0.30078 0 0.625 0.015625 0.96875 0.046875 0.34375 0.023438 0.84766 0.074219 1.5156 0.15625z"/>
  </symbol>
  <symbol id="b" overflow="visible">
   <path d="m31.969-13.953v2.5312h-20.75c0.21875 2.0859 0.96875 3.6484 2.25 4.6875 1.2891 1.043 3.0938 1.5625 5.4062 1.5625 1.875 0 3.7891-0.27344 5.75-0.82812 1.957-0.5625 3.9688-1.4062 6.0312-2.5312v6.8438c-2.1055 0.79297-4.2031 1.3906-6.2969 1.7969s-4.1953 0.60938-6.2969 0.60938c-5.0234 0-8.9219-1.2734-11.703-3.8281-2.7812-2.5508-4.1719-6.1328-4.1719-10.75 0-4.5195 1.3633-8.0781 4.0938-10.672 2.7383-2.5938 6.5-3.8906 11.281-3.8906 4.3633 0 7.8516 1.3125 10.469 3.9375 2.625 2.625 3.9375 6.1367 3.9375 10.531zm-9.125-2.9531c0-1.6758-0.49219-3.0312-1.4688-4.0625-0.98047-1.0391-2.2656-1.5625-3.8594-1.5625-1.7188 0-3.1172 0.48438-4.1875 1.4531-1.0742 0.96875-1.7422 2.3594-2 4.1719z"/>
  </symbol>
  <symbol id="a" overflow="visible">
   <path d="m16.703-12.484c-1.8555 0-3.25 0.3125-4.1875 0.9375-0.92969 0.625-1.3906 1.5547-1.3906 2.7812 0 1.1172 0.375 1.9961 1.125 2.6406 0.75 0.63672 1.7969 0.95312 3.1406 0.95312 1.6641 0 3.0664-0.59766 4.2031-1.7969 1.1445-1.1953 1.7188-2.6953 1.7188-4.5v-1.0156zm13.547-3.3438v15.828h-8.9375v-4.1094c-1.1875 1.6797-2.5273 2.9023-4.0156 3.6719-1.4922 0.76953-3.2969 1.1562-5.4219 1.1562-2.875 0-5.2109-0.83594-7-2.5156-1.793-1.6758-2.6875-3.8516-2.6875-6.5312 0-3.25 1.1133-5.6328 3.3438-7.1562 2.2383-1.5195 5.7539-2.2812 10.547-2.2812h5.2344v-0.70312c0-1.3945-0.55859-2.4219-1.6719-3.0781-1.1055-0.65625-2.8281-0.98438-5.1719-0.98438-1.8984 0-3.6641 0.19531-5.2969 0.57812-1.6367 0.375-3.1562 0.94531-4.5625 1.7031v-6.7656c1.8945-0.45703 3.8008-0.80469 5.7188-1.0469 1.9141-0.23828 3.832-0.35938 5.75-0.35938 5.0078 0 8.625 0.99219 10.844 2.9688 2.2188 1.9688 3.3281 5.1797 3.3281 9.625z"/>
  </symbol>
  <symbol id="h" overflow="visible">
   <path d="m13.953-35.641v7.8906h9.1406v6.3438h-9.1406v11.766c0 1.293 0.25391 2.168 0.76562 2.625 0.50781 0.44922 1.5234 0.67188 3.0469 0.67188h4.5625v6.3438h-7.6094c-3.5 0-5.9844-0.72656-7.4531-2.1875-1.4609-1.4688-2.1875-3.9531-2.1875-7.4531v-11.766h-4.4062v-6.3438h4.4062v-7.8906z"/>
  </symbol>
  <symbol id="g" overflow="visible">
   <path d="m23.141-23.688v-14.875h8.9219v38.562h-8.9219v-4.0156c-1.2188 1.6367-2.5625 2.8359-4.0312 3.5938s-3.1719 1.1406-5.1094 1.1406c-3.418 0-6.2266-1.3594-8.4219-4.0781-2.1992-2.7188-3.2969-6.2188-3.2969-10.5 0-4.2695 1.0977-7.7656 3.2969-10.484 2.1953-2.7188 5.0039-4.0781 8.4219-4.0781 1.9141 0 3.6133 0.38672 5.0938 1.1562 1.4766 0.76172 2.8281 1.9531 4.0469 3.5781zm-5.8438 17.969c1.8945 0 3.3438-0.69141 4.3438-2.0781 1-1.3945 1.5-3.4141 1.5-6.0625 0-2.6328-0.5-4.6445-1.5-6.0312-1-1.3945-2.4492-2.0938-4.3438-2.0938-1.8867 0-3.3281 0.69922-4.3281 2.0938-1 1.3867-1.5 3.3984-1.5 6.0312 0 2.6484 0.5 4.668 1.5 6.0625 1 1.3867 2.4414 2.0781 4.3281 2.0781z"/>
  </symbol>
  <symbol id="f" overflow="visible">
   <path d="m19.031-5.7188c1.8945 0 3.3438-0.69141 4.3438-2.0781 1-1.3945 1.5-3.4141 1.5-6.0625 0-2.6328-0.5-4.6445-1.5-6.0312-1-1.3945-2.4492-2.0938-4.3438-2.0938-1.8984 0-3.3555 0.69922-4.375 2.0938-1.0117 1.3984-1.5156 3.4062-1.5156 6.0312 0 2.6367 0.50391 4.6523 1.5156 6.0469 1.0195 1.3984 2.4766 2.0938 4.375 2.0938zm-5.8906-17.969c1.2188-1.625 2.5664-2.8164 4.0469-3.5781 1.4883-0.76953 3.2031-1.1562 5.1406-1.1562 3.4141 0 6.2227 1.3594 8.4219 4.0781 2.1953 2.7188 3.2969 6.2148 3.2969 10.484 0 4.2812-1.1016 7.7812-3.2969 10.5-2.1992 2.7188-5.0078 4.0781-8.4219 4.0781-1.9375 0-3.6523-0.38672-5.1406-1.1562-1.4805-0.76953-2.8281-1.9609-4.0469-3.5781v4.0156h-8.875v-38.562h8.875z"/>
  </symbol>
  <symbol id="e" overflow="visible">
   <path d="m0.625-27.75h8.8594l7.4688 18.828 6.3438-18.828h8.875l-11.672 30.375c-1.1797 3.0938-2.5469 5.2539-4.1094 6.4844-1.5625 1.2266-3.625 1.8438-6.1875 1.8438h-5.125v-5.8281h2.7812c1.5 0 2.5938-0.24219 3.2812-0.71875 0.6875-0.48047 1.2188-1.3398 1.5938-2.5781l0.25-0.76562z"/>
  </symbol>
  <symbol id="d" overflow="visible">
   <path d="m4.6562-37h9.5469v14.109h14.078v-14.109h9.5312v37h-9.5312v-15.688h-14.078v15.688h-9.5469z"/>
  </symbol>
  <symbol id="c" overflow="visible">
   <path d="m32.172-16.906v16.906h-8.9219v-12.938c0-2.3945-0.058594-4.0469-0.17188-4.9531-0.10547-0.90625-0.28906-1.5781-0.54688-2.0156-0.35547-0.57031-0.82812-1.0195-1.4219-1.3438-0.59375-0.32031-1.2734-0.48438-2.0312-0.48438-1.8438 0-3.2969 0.71484-4.3594 2.1406-1.0547 1.4297-1.5781 3.4062-1.5781 5.9375v13.656h-8.875v-27.75h8.875v4.0625c1.332-1.625 2.75-2.8164 4.25-3.5781 1.5078-0.76953 3.1719-1.1562 4.9844-1.1562 3.207 0 5.6406 0.98438 7.2969 2.9531 1.6641 1.9609 2.5 4.8125 2.5 8.5625z"/>
  </symbol>
  <symbol id="m" overflow="visible">
   <path d="m4.6562-37h25.75v7.2188h-16.203v6.8906h15.234v7.2031h-15.234v8.4688h16.75v7.2188h-26.297z"/>
  </symbol>
  <symbol id="l" overflow="visible">
   <path d="m4.2656-38.562h8.875v38.562h-8.875z"/>
  </symbol>
  <symbol id="k" overflow="visible">
   <path d="m4.2656-27.75h8.875v27.75h-8.875zm0-10.812h8.875v7.2344h-8.875z"/>
  </symbol>
  <symbol id="j" overflow="visible">
   <path d="m25.938-26.891v6.75c-1.8984-0.78906-3.7305-1.3828-5.5-1.7812-1.7617-0.40625-3.4297-0.60938-5-0.60938-1.6875 0-2.9453 0.21484-3.7656 0.64062-0.8125 0.41797-1.2188 1.0625-1.2188 1.9375 0 0.71875 0.30469 1.2656 0.92188 1.6406 0.625 0.375 1.7383 0.65625 3.3438 0.84375l1.5625 0.21875c4.5391 0.58594 7.5938 1.5391 9.1562 2.8594 1.5703 1.3125 2.3594 3.3867 2.3594 6.2188 0 2.9609-1.0898 5.1836-3.2656 6.6719-2.1797 1.4805-5.4336 2.2188-9.7656 2.2188-1.8359 0-3.7305-0.14844-5.6875-0.4375-1.9609-0.28906-3.9688-0.72266-6.0312-1.2969v-6.7344c1.7695 0.85547 3.582 1.5 5.4375 1.9375 1.8633 0.42969 3.7539 0.64062 5.6719 0.64062 1.7266 0 3.0312-0.23828 3.9062-0.71875 0.875-0.47656 1.3125-1.1914 1.3125-2.1406 0-0.78906-0.30469-1.3789-0.90625-1.7656-0.60547-0.39453-1.8047-0.69531-3.5938-0.90625l-1.5625-0.20312c-3.9492-0.48828-6.7188-1.3984-8.3125-2.7344-1.5859-1.3438-2.375-3.3789-2.375-6.1094 0-2.9375 1.0039-5.1133 3.0156-6.5312 2.0195-1.4258 5.1133-2.1406 9.2812-2.1406 1.6328 0 3.3477 0.125 5.1406 0.375 1.8008 0.25 3.7578 0.63672 5.875 1.1562z"/>
  </symbol>
 </defs>
 <g>
  <path d="m350.05 560c-55.398 0.019531-109.55-16.391-155.62-47.156-46.07-30.762-81.98-74.5-103.19-125.68-21.207-51.18-26.762-107.5-15.961-161.83 10.805-54.336 37.477-104.25 76.648-143.42s89.082-65.844 143.42-76.648c54.332-10.801 110.65-5.2461 161.83 15.961 51.176 21.211 94.914 57.121 125.68 103.19 30.766 46.07 47.176 100.23 47.156 155.62-0.10547 74.215-29.637 145.36-82.113 197.84-52.477 52.477-123.62 82.008-197.84 82.113zm0-519.4c-47.363-0.019531-93.668 14.008-133.06 40.305-39.391 26.301-70.098 63.688-88.234 107.44-18.141 43.75-22.898 91.898-13.668 138.36 9.2266 46.453 32.023 89.129 65.508 122.63 33.484 33.496 76.148 56.312 122.6 65.559 46.449 9.25 94.602 4.5117 138.36-13.609 43.762-18.117 81.164-48.809 107.48-88.188 26.316-39.383 40.363-85.68 40.363-133.04-0.054688-63.473-25.285-124.33-70.156-169.22-44.871-44.891-105.72-70.145-169.19-70.227z"/>
  <path d="m382.53 184.64c0 17.938-14.543 32.48-32.48 32.48s-32.48-14.543-32.48-32.48 14.543-32.48 32.48-32.48 32.48 14.543 32.48 32.48"/>
  <path d="m324.78 242.09h50.348v165.76h-50.348z"/>
  <use x="70" y="712.257812" xlink:href="#n"/>
  <use x="107.246094" y="712.257812" xlink:href="#i"/>
  <use x="132.277344" y="712.257812" xlink:href="#b"/>
  <use x="166.695312" y="712.257812" xlink:href="#a"/>
  <use x="200.945312" y="712.257812" xlink:href="#h"/>
  <use x="225.207031" y="712.257812" xlink:href="#b"/>
  <use x="259.625" y="712.257812" xlink:href="#g"/>
  <use x="313.625" y="712.257812" xlink:href="#f"/>
  <use x="349.953125" y="712.257812" xlink:href="#e"/>
  <use x="400.707031" y="712.257812" xlink:href="#d"/>
  <use x="443.183594" y="712.257812" xlink:href="#a"/>
  <use x="477.429688" y="712.257812" xlink:href="#c"/>
  <use x="513.5625" y="712.257812" xlink:href="#c"/>
  <use x="549.691406" y="712.257812" xlink:href="#a"/>
  <use x="601.609375" y="712.257812" xlink:href="#m"/>
  <use x="636.277344" y="712.257812" xlink:href="#l"/>
  <use x="653.675781" y="712.257812" xlink:href="#k"/>
  <use x="671.070312" y="712.257812" xlink:href="#j"/>
 </g>
</svg>
