<?xml version="1.0" encoding="UTF-8"?>
<svg width="700px" height="700px" version="1.1" viewBox="0 0 700 700" xmlns="http://www.w3.org/2000/svg" xmlns:xlink="http://www.w3.org/1999/xlink">
 <defs>
  <symbol id="m" overflow="visible">
   <path d="m35.391-2.1094c-1.8242 0.9375-3.7266 1.6484-5.7031 2.125-1.9805 0.48828-4.043 0.73438-6.1875 0.73438-6.418 0-11.5-1.7891-15.25-5.375-3.75-3.5938-5.625-8.457-5.625-14.594 0-6.1562 1.875-11.023 5.625-14.609 3.75-3.582 8.832-5.375 15.25-5.375 2.1445 0 4.207 0.24219 6.1875 0.71875 1.9766 0.48047 3.8789 1.1953 5.7031 2.1406v7.9688c-1.8438-1.25-3.6641-2.1641-5.4531-2.75-1.7812-0.59375-3.6641-0.89062-5.6406-0.89062-3.543 0-6.3281 1.1367-8.3594 3.4062-2.0312 2.2734-3.0469 5.4023-3.0469 9.3906 0 3.9688 1.0156 7.0898 3.0469 9.3594 2.0312 2.2734 4.8164 3.4062 8.3594 3.4062 1.9766 0 3.8594-0.28906 5.6406-0.875 1.7891-0.58203 3.6094-1.5 5.4531-2.75z"/>
  </symbol>
  <symbol id="c" overflow="visible">
   <path d="m25.891-21.016c-0.80469-0.38281-1.6055-0.66406-2.4062-0.84375-0.80469-0.17578-1.6055-0.26562-2.4062-0.26562-2.375 0-4.2031 0.76172-5.4844 2.2812-1.2812 1.5234-1.9219 3.6992-1.9219 6.5312v13.312h-9.2344v-28.891h9.2344v4.75c1.1875-1.8945 2.5469-3.2734 4.0781-4.1406 1.5391-0.875 3.3906-1.3125 5.5469-1.3125 0.30078 0 0.63281 0.015625 1 0.046875 0.36328 0.023437 0.89062 0.078125 1.5781 0.17188z"/>
  </symbol>
  <symbol id="a" overflow="visible">
   <path d="m33.281-14.516v2.625h-21.594c0.21875 2.168 1 3.793 2.3438 4.875 1.3438 1.0859 3.2188 1.625 5.625 1.625 1.9453 0 3.9375-0.28516 5.9688-0.85938 2.0391-0.58203 4.1328-1.457 6.2812-2.625v7.125c-2.1875 0.82422-4.375 1.4453-6.5625 1.8594-2.1797 0.42578-4.3594 0.64062-6.5469 0.64062-5.2188 0-9.2812-1.3281-12.188-3.9844-2.8984-2.6562-4.3438-6.3828-4.3438-11.188 0-4.707 1.4219-8.4102 4.2656-11.109 2.8516-2.707 6.7695-4.0625 11.75-4.0625 4.5391 0 8.1758 1.3711 10.906 4.1094 2.7266 2.7305 4.0938 6.3867 4.0938 10.969zm-9.5-3.0781c0-1.75-0.51172-3.1602-1.5312-4.2344-1.0234-1.082-2.3594-1.625-4.0156-1.625-1.793 0-3.2461 0.50781-4.3594 1.5156-1.1172 1.0117-1.8125 2.4609-2.0938 4.3438z"/>
  </symbol>
  <symbol id="h" overflow="visible">
   <path d="m17.391-13c-1.9297 0-3.3828 0.32812-4.3594 0.98438-0.96875 0.64844-1.4531 1.6094-1.4531 2.8906 0 1.168 0.39062 2.0859 1.1719 2.75 0.78125 0.65625 1.8672 0.98438 3.2656 0.98438 1.7383 0 3.2031-0.61719 4.3906-1.8594 1.1875-1.25 1.7812-2.8125 1.7812-4.6875v-1.0625zm14.109-3.4844v16.484h-9.3125v-4.2812c-1.2422 1.75-2.6367 3.0273-4.1875 3.8281-1.543 0.80078-3.4219 1.2031-5.6406 1.2031-2.9922 0-5.4219-0.86719-7.2969-2.6094-1.8672-1.75-2.7969-4.0195-2.7969-6.8125 0-3.3828 1.1641-5.8672 3.5-7.4531 2.332-1.582 5.9883-2.375 10.969-2.375h5.4531v-0.71875c0-1.457-0.57812-2.5234-1.7344-3.2031-1.1484-0.6875-2.9453-1.0312-5.3906-1.0312-1.9805 0-3.8242 0.19922-5.5312 0.59375-1.6992 0.39844-3.2773 0.99219-4.7344 1.7812v-7.0312c1.9766-0.48828 3.9609-0.85938 5.9531-1.1094 2-0.25 3.9922-0.375 5.9844-0.375 5.2188 0 8.9844 1.0312 11.297 3.0938 2.3125 2.0547 3.4688 5.3906 3.4688 10.016z"/>
  </symbol>
  <symbol id="b" overflow="visible">
   <path d="m14.516-37.094v8.2031h9.5312v6.6094h-9.5312v12.25c0 1.3438 0.26562 2.25 0.79688 2.7188 0.53906 0.46875 1.6016 0.70312 3.1875 0.70312h4.7344v6.6094h-7.9062c-3.6484 0-6.2344-0.75781-7.7656-2.2812-1.5234-1.5195-2.2812-4.1016-2.2812-7.75v-12.25h-4.5781v-6.6094h4.5781v-8.2031z"/>
  </symbol>
  <symbol id="g" overflow="visible">
   <path d="m24.094-24.656v-15.484h9.2812v40.141h-9.2812v-4.1719c-1.2734 1.6992-2.6719 2.9453-4.2031 3.7344s-3.3047 1.1875-5.3125 1.1875c-3.5625 0-6.4922-1.4102-8.7812-4.2344-2.2812-2.832-3.4219-6.4766-3.4219-10.938 0-4.4453 1.1406-8.0859 3.4219-10.922 2.2891-2.832 5.2188-4.25 8.7812-4.25 1.9883 0 3.7539 0.40234 5.2969 1.2031 1.5391 0.80469 2.9453 2.0469 4.2188 3.7344zm-6.0938 18.703c1.9766 0 3.4883-0.72266 4.5312-2.1719 1.0391-1.4453 1.5625-3.5469 1.5625-6.2969s-0.52344-4.8438-1.5625-6.2812c-1.043-1.4453-2.5547-2.1719-4.5312-2.1719-1.9609 0-3.4609 0.72656-4.5 2.1719-1.043 1.4375-1.5625 3.5312-1.5625 6.2812s0.51953 4.8516 1.5625 6.2969c1.0391 1.4492 2.5391 2.1719 4.5 2.1719z"/>
  </symbol>
  <symbol id="f" overflow="visible">
   <path d="m19.812-5.9531c1.9766 0 3.4844-0.72266 4.5156-2.1719 1.0391-1.4453 1.5625-3.5469 1.5625-6.2969s-0.52344-4.8438-1.5625-6.2812c-1.0312-1.4453-2.5391-2.1719-4.5156-2.1719-1.9805 0-3.5 0.73047-4.5625 2.1875-1.0547 1.4492-1.5781 3.5391-1.5781 6.2656 0 2.7422 0.52344 4.8398 1.5781 6.2969 1.0625 1.4492 2.582 2.1719 4.5625 2.1719zm-6.1406-18.703c1.2695-1.6875 2.6758-2.9297 4.2188-3.7344 1.5508-0.80078 3.332-1.2031 5.3438-1.2031 3.5625 0 6.4844 1.418 8.7656 4.25 2.2891 2.8359 3.4375 6.4766 3.4375 10.922 0 4.4609-1.1484 8.1055-3.4375 10.938-2.2812 2.8242-5.2031 4.2344-8.7656 4.2344-2.0117 0-3.793-0.40234-5.3438-1.2031-1.543-0.80078-2.9492-2.0391-4.2188-3.7188v4.1719h-9.2344v-40.141h9.2344z"/>
  </symbol>
  <symbol id="e" overflow="visible">
   <path d="m0.64062-28.891h9.2344l7.7656 19.609 6.6094-19.609h9.2344l-12.156 31.625c-1.2188 3.2188-2.6406 5.4688-4.2656 6.75s-3.7734 1.9219-6.4375 1.9219h-5.3438v-6.0625h2.8906c1.5703 0 2.7109-0.25 3.4219-0.75 0.71875-0.5 1.2734-1.3984 1.6719-2.6875l0.25-0.79688z"/>
  </symbol>
  <symbol id="d" overflow="visible">
   <path d="m0.26562-38.516h9.9688l10.219 28.438 10.188-28.438h9.9844l-14.266 38.516h-11.844z"/>
  </symbol>
  <symbol id="l" overflow="visible">
   <path d="m27.781-27.984v7.5312c-1.2617-0.86328-2.5234-1.5-3.7812-1.9062-1.2617-0.41406-2.5742-0.625-3.9375-0.625-2.5742 0-4.5781 0.75781-6.0156 2.2656-1.4375 1.5-2.1562 3.6016-2.1562 6.2969 0 2.6992 0.71875 4.8047 2.1562 6.3125 1.4375 1.5 3.4414 2.25 6.0156 2.25 1.4453 0 2.8164-0.21094 4.1094-0.64062 1.3008-0.42578 2.5039-1.0625 3.6094-1.9062v7.5625c-1.4492 0.53125-2.918 0.92578-4.4062 1.1875-1.4805 0.26953-2.9688 0.40625-4.4688 0.40625-5.2109 0-9.2891-1.3359-12.234-4.0156-2.9375-2.6758-4.4062-6.3945-4.4062-11.156 0-4.7578 1.4688-8.4766 4.4062-11.156 2.9453-2.6758 7.0234-4.0156 12.234-4.0156 1.5078 0 3 0.13672 4.4688 0.40625 1.4766 0.27344 2.9453 0.67188 4.4062 1.2031z"/>
  </symbol>
  <symbol id="k" overflow="visible">
   <path d="m18.188-22.984c-2.0547 0-3.6172 0.73438-4.6875 2.2031-1.0742 1.4688-1.6094 3.5898-1.6094 6.3594 0 2.7734 0.53516 4.8906 1.6094 6.3594 1.0703 1.4688 2.6328 2.2031 4.6875 2.2031 2.0078 0 3.5469-0.73438 4.6094-2.2031 1.0703-1.4688 1.6094-3.5859 1.6094-6.3594 0-2.7695-0.53906-4.8906-1.6094-6.3594-1.0625-1.4688-2.6016-2.2031-4.6094-2.2031zm0-6.6094c4.9688 0 8.8477 1.3438 11.641 4.0312 2.8008 2.6875 4.2031 6.4023 4.2031 11.141 0 4.75-1.4023 8.4688-4.2031 11.156-2.793 2.6797-6.6719 4.0156-11.641 4.0156-4.9922 0-8.8906-1.3359-11.703-4.0156-2.8125-2.6875-4.2188-6.4062-4.2188-11.156 0-4.7383 1.4062-8.4531 4.2188-11.141s6.7109-4.0312 11.703-4.0312z"/>
  </symbol>
  <symbol id="j" overflow="visible">
   <path d="m27-27.984v7.0156c-1.9688-0.82031-3.875-1.4414-5.7188-1.8594-1.8438-0.41406-3.5859-0.625-5.2188-0.625-1.75 0-3.0547 0.22656-3.9062 0.67188-0.84375 0.4375-1.2656 1.1094-1.2656 2.0156 0 0.74219 0.31641 1.3086 0.95312 1.7031 0.64453 0.39844 1.8047 0.6875 3.4844 0.875l1.625 0.23438c4.7266 0.60547 7.9062 1.5938 9.5312 2.9688 1.6328 1.375 2.4531 3.5312 2.4531 6.4688 0 3.0859-1.1367 5.4023-3.4062 6.9531-2.2734 1.543-5.6562 2.3125-10.156 2.3125-1.9062 0-3.8828-0.15234-5.9219-0.45312-2.043-0.30078-4.1367-0.75391-6.2812-1.3594v-7.0156c1.8438 0.89844 3.7266 1.5703 5.6562 2.0156 1.9375 0.44922 3.9062 0.67188 5.9062 0.67188 1.8008 0 3.1562-0.25 4.0625-0.75 0.91406-0.5 1.375-1.2383 1.375-2.2188 0-0.82031-0.32031-1.4375-0.95312-1.8438-0.625-0.40625-1.8711-0.71875-3.7344-0.9375l-1.625-0.20312c-4.1172-0.51953-7-1.4727-8.6562-2.8594-1.6484-1.3945-2.4688-3.5156-2.4688-6.3594 0-3.0625 1.0469-5.332 3.1406-6.8125 2.1016-1.4766 5.3203-2.2188 9.6562-2.2188 1.6953 0 3.4844 0.13281 5.3594 0.39062 1.875 0.26172 3.9102 0.66797 6.1094 1.2188z"/>
  </symbol>
  <symbol id="i" overflow="visible">
   <path d="m4.8438-38.516h16.484c4.9062 0 8.6641 1.0898 11.281 3.2656 2.625 2.1797 3.9375 5.2773 3.9375 9.2969 0 4.043-1.3125 7.1523-3.9375 9.3281-2.6172 2.1797-6.375 3.2656-11.281 3.2656h-6.5469v13.359h-9.9375zm9.9375 7.2031v10.75h5.5c1.9141 0 3.3984-0.46875 4.4531-1.4062 1.0508-0.9375 1.5781-2.2656 1.5781-3.9844s-0.52734-3.0391-1.5781-3.9688c-1.0547-0.92578-2.5391-1.3906-4.4531-1.3906z"/>
  </symbol>
 </defs>
 <g>
  <path d="m341.02 143.64c0-2.6406 0.10547-5.2812 0.31641-7.8203v-0.63281-0.21094-0.21094-0.73828l-2.7461-107.67h-107.56v158.7c34.023-19.23 71.531-32.543 110.1-38.777-0.10547-0.84766-0.10547-1.7969-0.10547-2.6445z"/>
  <path d="m540.93 26.363h-118.23l0.84375 33.285h1.5859c6.1289 0 12.363 0.73828 18.598 2.0078 30.324 6.6562 54.945 30.746 62.551 60.754l97.312-13.949v-19.336c0-34.656-28.105-62.762-62.656-62.762z"/>
  <path d="m467.5 223.95-2.3242 4.7539c54.52 44.164 101.54 97.523 138.41 156.7v-192.09l-127.85 18.492c-3.4883 4.1211-6.1289 8.1367-8.2422 12.152z"/>
  <path d="m344.36 250.43-0.46484-19.152c-67.184 14.09-125.51 55.039-161.54 114.07l-84.543 138.29c5.9336 28.484 31.168 49.891 61.414 49.891h15.406l99.453-102.97c46.277-47.758 71.887-113.4 70.277-180.12z"/>
  <path d="m146.94 252.77v-225.12c-28.797 5.6953-50.527 31.078-50.527 61.547v235.56l14.195-23.203c10.855-17.684 23.051-34.066 36.332-48.781z"/>
  <path d="m424.98 304.61c-10.008 69.391-41.492 134-90.359 184.43l-43.031 44.492h249.29c14.391 0 27.531-4.9492 38.055-13.148l-14.848-32.035c-32.801-70.211-80.586-133.23-139.1-183.73z"/>
  <path d="m404.42 269.49-19.125-39.305h-0.42188l-0.10938-1.0586-2.8516-5.918c-2.957-6.1289-7.7148-12.258-14.582-18.703-4.6484-4.332-8.6641-9.1914-12.152-14.477l-5.4922 0.73828-1.0586-6.4453 2.8516-0.42187c-3.9102-6.8672-6.6562-14.266-8.3477-21.977-46.492 7.7148-90.023 25.57-127.96 51.668l0.007813-187.12h-22.93v12.891h-6.5508v-12.891h-22.93v232.45c-14.477 15.531-27.367 32.543-38.672 50.93l-27.684 45.223v43.848l21.766-35.5 5.6016 3.3828-27.367 44.695v43.953l72.379-118.34c41.312-67.621 109.99-112.84 188.5-124.26l2.0078-0.31641 0.95312 37.508c1.6914 70.793-25.465 140.63-74.809 191.56l-83.262 86.219c8.0312 3.6992 17.117 5.8125 26.625 5.8125h40.68l53.781-55.684c52.09-53.781 83.473-125.31 88.543-199.91-3.0625-2.1094-5.5977-5.0703-7.3906-8.5547zm-218.72-197.59h6.5508v52.09h-6.5508zm0 84.527h6.5508v52.09h-6.5508zm-36.453 168.74-7.7148 12.469-5.4961-3.3828 7.6094-12.469c6.9727-11.621 14.793-22.613 23.352-33.07l5.0703 4.2266c-8.2383 10.141-15.953 20.918-22.82 32.227zm45.75-57.059-2.7461-2.8516v1.9023h-6.5508v-26.203h6.5508v20.711c12.785-12.152 26.52-23.141 41.312-32.754l3.5938 5.3906c-15.109 9.9258-29.27 21.23-42.16 33.805zm71.535-50.609-3.0664-5.8125c16.484-8.1367 33.812-14.898 51.562-19.969l1.7969 6.4453c-17.434 4.8594-34.34 11.41-50.293 19.336zm-26.523 313.6-4.7539-4.4375 38.461-39.727 4.543 4.543zm66.672-68.996-4.4375 4.6484-4.6484-4.6484 4.4375-4.543c11.094-11.516 21.344-24.09 30.535-37.402l5.3867 3.6992c-9.2969 13.629-19.863 26.52-31.273 38.246zm49.238-68.043-5.8125-3.0664c8.3477-16.059 15.32-32.965 20.605-50.398l6.2344 1.9023c-5.2852 17.75-12.363 35.078-21.027 51.562zm33.812-137.15c0 17.223-1.5859 34.551-4.6484 51.773l-6.3398-1.2695c2.957-16.59 4.4375-33.602 4.4375-50.508v-3.6992l6.5508-0.10547z"/>
  <path d="m603.59 465.8v-49.555c-37.402-66.25-86.746-124.79-145.5-172.96l-11.094 22.82c8.5586 6.8672 16.906 14.055 25.043 21.449l-4.4375 4.8594c-7.7148-7.0781-15.637-13.84-23.773-20.395-4.1211 6.3398-11.094 10.25-18.914 10.25-0.73828 0-1.375 0-2.1133-0.10547 66.039 53.57 119.29 121.72 155.64 199.49l12.469 26.941c6.3398-8.3477 10.461-17.961 11.941-28.738l-4.8594-10.461c-4.9648-10.883-10.461-21.66-16.273-32.121l5.707-3.2773c5.7031 10.465 11.094 21.031 16.164 31.809zm-82.309-117.29c-10.145-12.363-20.922-24.195-32.121-35.398l4.6484-4.7539c11.305 11.516 22.293 23.457 32.438 35.926zm45.434 62.871c-8.4531-13.523-17.434-26.73-26.941-39.516l5.2812-3.8047c9.5078 12.785 18.703 26.203 27.156 39.836z"/>
  <path d="m407.69 61.441c-21.238 4.543-39.41 17.012-51.457 34.129l-1.7969-69.102h22.93l0.31641 12.891 6.5508-0.10547-0.31641-12.785h22.93z"/>
  <path d="m508.49 138.15c1.375 19.969-4.332 39.41-15.848 55.156l110.95-16.062v-52.832zm17.012 27.363-0.94922-6.5508 54.203-7.7148 0.84375 6.3398z"/>
  <path d="m192.23 265.19v-3.4141c-0.625 0.51562-1.1367 1.1367-1.7695 1.6445z"/>
  <path d="m202.18 527.79-5.5977 5.8125h0.03125l5.5977-5.8008z"/>
  <path d="m491.69 129.7c-5.0703-25.781-25.676-46.914-51.352-52.512-44.273-9.6172-83.473 23.879-83.473 66.461 0 19.441 8.2422 36.98 21.344 49.344 7.1836 6.7617 13.629 14.371 17.961 23.246l22.504 46.277c2.5352 5.1758 9.9336 5.1758 12.469 0l22.188-45.539c4.543-9.1914 11.199-17.012 18.594-24.09 16.066-15.219 24.625-38.254 19.766-63.188zm-66.672 51.879c-21.027 0-38.039-17.012-38.039-37.934 0-21.027 17.012-38.039 38.039-38.039 20.922 0 37.824 17.012 37.824 38.039 0.003906 20.922-16.902 37.934-37.824 37.934z"/>

 </g>
</svg>
