<?xml version="1.0" encoding="UTF-8"?>
<svg width="700pt" height="700pt" version="1.1" viewBox="0 0 700 700" xmlns="http://www.w3.org/2000/svg" xmlns:xlink="http://www.w3.org/1999/xlink">
 <defs>
  <symbol id="v" overflow="visible">
   <path d="m7.3281-0.4375c-0.375 0.19922-0.77344 0.34375-1.1875 0.4375-0.40625 0.10156-0.83594 0.15625-1.2812 0.15625-1.3242 0-2.375-0.36719-3.1562-1.1094-0.77344-0.75-1.1562-1.7578-1.1562-3.0312 0-1.2695 0.38281-2.2734 1.1562-3.0156 0.78125-0.75 1.832-1.125 3.1562-1.125 0.44531 0 0.875 0.054688 1.2812 0.15625 0.41406 0.10547 0.8125 0.25 1.1875 0.4375v1.6562c-0.38672-0.25781-0.76562-0.44531-1.1406-0.5625-0.36719-0.125-0.75-0.1875-1.1562-0.1875-0.73047 0-1.3086 0.23438-1.7344 0.70312-0.41797 0.46875-0.625 1.1172-0.625 1.9375 0 0.82422 0.20703 1.4766 0.625 1.9531 0.42578 0.46875 1.0039 0.70312 1.7344 0.70312 0.40625 0 0.78906-0.0625 1.1562-0.1875 0.375-0.125 0.75391-0.31641 1.1406-0.57812z"/>
  </symbol>
  <symbol id="d" overflow="visible">
   <path d="m5.3594-4.3594c-0.16797-0.070313-0.33594-0.125-0.5-0.15625-0.16797-0.039063-0.33594-0.0625-0.5-0.0625-0.49219 0-0.87109 0.15625-1.1406 0.46875-0.26172 0.3125-0.39062 0.76562-0.39062 1.3594v2.75h-1.9062v-5.9844h1.9062v0.98438c0.25-0.39453 0.53125-0.67969 0.84375-0.85938 0.32031-0.17578 0.70703-0.26562 1.1562-0.26562 0.0625 0 0.12891 0.007812 0.20312 0.015625 0.070312 0 0.17969 0.011719 0.32812 0.03125z"/>
  </symbol>
  <symbol id="a" overflow="visible">
   <path d="m6.8906-3v0.53125h-4.4688c0.039063 0.44922 0.20312 0.78906 0.48438 1.0156 0.28125 0.23047 0.66406 0.34375 1.1562 0.34375 0.40625 0 0.81641-0.054687 1.2344-0.17188 0.42578-0.125 0.86328-0.3125 1.3125-0.5625v1.4844c-0.46094 0.16797-0.91406 0.29297-1.3594 0.375-0.44922 0.09375-0.90234 0.14062-1.3594 0.14062-1.0859 0-1.9297-0.27344-2.5312-0.82812-0.59375-0.55078-0.89062-1.3203-0.89062-2.3125 0-0.97656 0.28906-1.7422 0.875-2.2969 0.59375-0.5625 1.4062-0.84375 2.4375-0.84375 0.94531 0 1.7031 0.28906 2.2656 0.85938 0.5625 0.5625 0.84375 1.3203 0.84375 2.2656zm-1.9688-0.64062c0-0.36328-0.10938-0.65625-0.32812-0.875-0.21094-0.22656-0.48047-0.34375-0.8125-0.34375-0.375 0-0.67969 0.10547-0.90625 0.3125-0.23047 0.21094-0.375 0.51172-0.4375 0.90625z"/>
  </symbol>
  <symbol id="b" overflow="visible">
   <path d="m3.5938-2.6875c-0.39844 0-0.69922 0.070312-0.90625 0.20312-0.19922 0.13672-0.29688 0.33594-0.29688 0.59375 0 0.24219 0.082031 0.43359 0.25 0.57812 0.16406 0.13672 0.39062 0.20312 0.67188 0.20312 0.36328 0 0.66406-0.12891 0.90625-0.39062 0.25-0.25781 0.375-0.58203 0.375-0.96875v-0.21875zm2.9219-0.71875v3.4062h-1.9219v-0.89062c-0.26172 0.36719-0.55469 0.63281-0.875 0.79688-0.3125 0.16406-0.69922 0.25-1.1562 0.25-0.625 0-1.1328-0.17578-1.5156-0.53125-0.38672-0.36328-0.57812-0.83594-0.57812-1.4219 0-0.69531 0.23828-1.207 0.71875-1.5312 0.48828-0.33203 1.25-0.5 2.2812-0.5h1.125v-0.15625c0-0.30078-0.12109-0.51953-0.35938-0.65625-0.24219-0.14453-0.60938-0.21875-1.1094-0.21875-0.41797 0-0.80469 0.042969-1.1562 0.125-0.34375 0.085937-0.66797 0.21094-0.96875 0.375v-1.4688c0.40625-0.09375 0.8125-0.16406 1.2188-0.21875 0.41406-0.050781 0.83203-0.078125 1.25-0.078125 1.0703 0 1.8477 0.21484 2.3281 0.64062 0.47656 0.42969 0.71875 1.1211 0.71875 2.0781z"/>
  </symbol>
  <symbol id="c" overflow="visible">
   <path d="m3-7.6875v1.7031h1.9844v1.375h-1.9844v2.5312c0 0.28125 0.054688 0.46875 0.17188 0.5625 0.11328 0.09375 0.33203 0.14062 0.65625 0.14062h0.98438v1.375h-1.6406c-0.75 0-1.2891-0.15625-1.6094-0.46875-0.3125-0.3125-0.46875-0.84766-0.46875-1.6094v-2.5312h-0.95312v-1.375h0.95312v-1.7031z"/>
  </symbol>
  <symbol id="f" overflow="visible">
   <path d="m4.9844-5.1094v-3.2031h1.9219v8.3125h-1.9219v-0.85938c-0.26172 0.34375-0.55469 0.60156-0.875 0.76562-0.3125 0.16406-0.67969 0.25-1.0938 0.25-0.74219 0-1.3516-0.28906-1.8281-0.875-0.46875-0.59375-0.70312-1.3477-0.70312-2.2656 0-0.92578 0.23438-1.6797 0.70312-2.2656 0.47656-0.58203 1.0859-0.875 1.8281-0.875 0.41406 0 0.78125 0.085938 1.0938 0.25 0.32031 0.16797 0.61328 0.42188 0.875 0.76562zm-1.25 3.875c0.40625 0 0.71094-0.14453 0.92188-0.4375 0.21875-0.30078 0.32812-0.73828 0.32812-1.3125 0-0.57031-0.10938-1.0039-0.32812-1.2969-0.21094-0.30078-0.51562-0.45312-0.92188-0.45312s-0.71875 0.15234-0.9375 0.45312c-0.21875 0.29297-0.32812 0.72656-0.32812 1.2969 0 0.57422 0.10938 1.0117 0.32812 1.3125 0.21875 0.29297 0.53125 0.4375 0.9375 0.4375z"/>
  </symbol>
  <symbol id="l" overflow="visible">
   <path d="m4.1094-1.2344c0.40625 0 0.71094-0.14453 0.92188-0.4375 0.21875-0.30078 0.32812-0.73828 0.32812-1.3125 0-0.57031-0.10938-1.0039-0.32812-1.2969-0.21094-0.30078-0.51562-0.45312-0.92188-0.45312-0.41797 0-0.73438 0.15234-0.95312 0.45312-0.21875 0.30469-0.32812 0.73438-0.32812 1.2969s0.10938 0.99609 0.32812 1.2969c0.21875 0.30469 0.53516 0.45312 0.95312 0.45312zm-1.2812-3.875c0.25781-0.34375 0.55078-0.59766 0.875-0.76562 0.32031-0.16406 0.69141-0.25 1.1094-0.25 0.73828 0 1.3438 0.29297 1.8125 0.875 0.47656 0.58594 0.71875 1.3398 0.71875 2.2656 0 0.91797-0.24219 1.6719-0.71875 2.2656-0.46875 0.58594-1.0742 0.875-1.8125 0.875-0.41797 0-0.78906-0.085938-1.1094-0.25-0.32422-0.16406-0.61719-0.42188-0.875-0.76562v0.85938h-1.9062v-8.3125h1.9062z"/>
  </symbol>
  <symbol id="k" overflow="visible">
   <path d="m0.14062-5.9844h1.9062l1.6094 4.0625 1.3594-4.0625h1.9219l-2.5156 6.5469c-0.26172 0.66406-0.55859 1.1289-0.89062 1.3906-0.33594 0.26953-0.77734 0.40625-1.3281 0.40625h-1.1094v-1.25h0.59375c0.32031 0 0.55469-0.054687 0.70312-0.15625 0.15625-0.10547 0.27344-0.29297 0.35938-0.5625l0.046875-0.15625z"/>
  </symbol>
  <symbol id="j" overflow="visible">
   <path d="m1-7.9688h2.0625v3.0312h3.0312v-3.0312h2.0625v7.9688h-2.0625v-3.375h-3.0312v3.375h-2.0625z"/>
  </symbol>
  <symbol id="i" overflow="visible">
   <path d="m5.5938-5.7969v1.4531c-0.40625-0.16406-0.80469-0.28906-1.1875-0.375-0.38672-0.09375-0.74609-0.14062-1.0781-0.14062-0.36719 0-0.63672 0.046875-0.8125 0.14062-0.17969 0.09375-0.26562 0.23438-0.26562 0.42188 0 0.15625 0.066406 0.27734 0.20312 0.35938 0.13281 0.074219 0.375 0.13281 0.71875 0.17188l0.34375 0.046875c0.97656 0.125 1.6328 0.33594 1.9688 0.625 0.33203 0.28125 0.5 0.72656 0.5 1.3281 0 0.63672-0.23438 1.1172-0.70312 1.4375-0.46875 0.32422-1.168 0.48438-2.0938 0.48438-0.39844 0-0.80859-0.03125-1.2344-0.09375-0.41797-0.0625-0.85156-0.15625-1.2969-0.28125v-1.4531c0.38281 0.1875 0.77344 0.32812 1.1719 0.42188 0.40625 0.09375 0.8125 0.14062 1.2188 0.14062 0.375 0 0.65625-0.050781 0.84375-0.15625 0.1875-0.10156 0.28125-0.25781 0.28125-0.46875 0-0.16406-0.070313-0.28906-0.20312-0.375-0.125-0.082031-0.38281-0.14844-0.76562-0.20312l-0.32812-0.03125c-0.85547-0.11328-1.4531-0.3125-1.7969-0.59375-0.34375-0.28906-0.51562-0.72656-0.51562-1.3125 0-0.63281 0.21875-1.1016 0.65625-1.4062 0.4375-0.3125 1.1016-0.46875 2-0.46875 0.35156 0 0.72266 0.027344 1.1094 0.078125 0.38281 0.054687 0.80469 0.13672 1.2656 0.25z"/>
  </symbol>
  <symbol id="h" overflow="visible">
   <path d="m6.9375-3.6406v3.6406h-1.9219v-2.7812c0-0.51953-0.015625-0.87891-0.046875-1.0781-0.023438-0.19531-0.058594-0.33594-0.10938-0.42188-0.074219-0.125-0.17969-0.22266-0.3125-0.29688-0.125-0.070313-0.27344-0.10938-0.4375-0.10938-0.39844 0-0.71094 0.15625-0.9375 0.46875-0.23047 0.30469-0.34375 0.73047-0.34375 1.2812v2.9375h-1.9062v-5.9844h1.9062v0.875c0.28906-0.34375 0.59766-0.59766 0.92188-0.76562 0.32031-0.16406 0.67969-0.25 1.0781-0.25 0.6875 0 1.207 0.21484 1.5625 0.64062 0.36328 0.41797 0.54688 1.0312 0.54688 1.8438z"/>
  </symbol>
  <symbol id="u" overflow="visible">
   <path d="m1-7.9688h2.0625v2.9062l2.9688-2.9062h2.375l-3.8281 3.7656 4.2344 4.2031h-2.5781l-3.1719-3.1406v3.1406h-2.0625z"/>
  </symbol>
  <symbol id="g" overflow="visible">
   <path d="m6.9375-3.6406v3.6406h-1.9219v-2.7812c0-0.51953-0.015625-0.87891-0.046875-1.0781-0.023438-0.19531-0.058594-0.33594-0.10938-0.42188-0.074219-0.125-0.17969-0.22266-0.3125-0.29688-0.125-0.070313-0.27344-0.10938-0.4375-0.10938-0.39844 0-0.71094 0.15625-0.9375 0.46875-0.23047 0.30469-0.34375 0.73047-0.34375 1.2812v2.9375h-1.9062v-8.3125h1.9062v3.2031c0.28906-0.34375 0.59766-0.59766 0.92188-0.76562 0.32031-0.16406 0.67969-0.25 1.0781-0.25 0.6875 0 1.207 0.21484 1.5625 0.64062 0.36328 0.41797 0.54688 1.0312 0.54688 1.8438z"/>
  </symbol>
  <symbol id="t" overflow="visible">
   <path d="m0.92188-8.3125h1.9062v8.3125h-1.9062z"/>
  </symbol>
  <symbol id="s" overflow="visible">
   <path d="m4.8594-8.3125v1.25h-1.0625c-0.27344 0-0.46094 0.054688-0.5625 0.15625-0.10547 0.09375-0.15625 0.26562-0.15625 0.51562v0.40625h1.625v1.375h-1.625v4.6094h-1.9219v-4.6094h-0.95312v-1.375h0.95312v-0.40625c0-0.65625 0.17969-1.1406 0.54688-1.4531 0.36328-0.3125 0.92578-0.46875 1.6875-0.46875z"/>
  </symbol>
  <symbol id="e" overflow="visible">
   <path d="m3.7656-4.7656c-0.42969 0-0.75 0.15625-0.96875 0.46875-0.21875 0.30469-0.32812 0.74219-0.32812 1.3125 0 0.57422 0.10938 1.0117 0.32812 1.3125 0.21875 0.30469 0.53906 0.45312 0.96875 0.45312 0.41406 0 0.73438-0.14844 0.95312-0.45312 0.21875-0.30078 0.32812-0.73828 0.32812-1.3125 0-0.57031-0.10938-1.0078-0.32812-1.3125-0.21875-0.3125-0.53906-0.46875-0.95312-0.46875zm0-1.3594c1.0312 0 1.832 0.28125 2.4062 0.84375 0.58203 0.55469 0.875 1.3203 0.875 2.2969 0 0.98047-0.29297 1.75-0.875 2.3125-0.57422 0.55469-1.375 0.82812-2.4062 0.82812s-1.8398-0.27344-2.4219-0.82812c-0.58594-0.5625-0.875-1.332-0.875-2.3125 0-0.97656 0.28906-1.7422 0.875-2.2969 0.58203-0.5625 1.3906-0.84375 2.4219-0.84375z"/>
  </symbol>
  <symbol id="r" overflow="visible">
   <path d="m6.4688-4.9844c0.23828-0.375 0.52344-0.65625 0.85938-0.84375 0.33203-0.19531 0.69531-0.29688 1.0938-0.29688 0.6875 0 1.207 0.21484 1.5625 0.64062 0.36328 0.41797 0.54688 1.0312 0.54688 1.8438v3.6406h-1.9219v-3.125-0.14062c0.007813-0.050781 0.015625-0.125 0.015625-0.21875 0-0.41406-0.0625-0.71875-0.1875-0.90625-0.125-0.19531-0.32812-0.29688-0.60938-0.29688-0.36719 0-0.64844 0.15234-0.84375 0.45312-0.19922 0.30469-0.29688 0.73438-0.29688 1.2969v2.9375h-1.9219v-3.125c0-0.65625-0.058594-1.0781-0.17188-1.2656-0.11719-0.19531-0.32031-0.29688-0.60938-0.29688-0.375 0-0.66406 0.15234-0.85938 0.45312-0.19922 0.30469-0.29688 0.73438-0.29688 1.2969v2.9375h-1.9219v-5.9844h1.9219v0.875c0.23828-0.33203 0.50781-0.58203 0.8125-0.75 0.30078-0.17578 0.63281-0.26562 1-0.26562 0.41406 0 0.78125 0.10156 1.0938 0.29688 0.32031 0.19922 0.56641 0.48047 0.73438 0.84375z"/>
  </symbol>
  <symbol id="q" overflow="visible">
   <path d="m1-7.9688h2.2969l2.9062 5.4688v-5.4688h1.9531v7.9688h-2.2969l-2.9062-5.4688v5.4688h-1.9531z"/>
  </symbol>
  <symbol id="p" overflow="visible">
   <path d="m0.85938-2.3281v-3.6562h1.9219v0.59375c0 0.33594-0.007812 0.74609-0.015625 1.2344v0.96875c0 0.48047 0.007813 0.82812 0.03125 1.0469 0.03125 0.21094 0.078125 0.35938 0.14062 0.45312 0.070312 0.125 0.17188 0.22656 0.29688 0.29688 0.125 0.0625 0.26953 0.09375 0.4375 0.09375 0.39453 0 0.70703-0.14844 0.9375-0.45312 0.22656-0.3125 0.34375-0.73828 0.34375-1.2812v-2.9531h1.9219v5.9844h-1.9219v-0.85938c-0.28125 0.34375-0.58594 0.60156-0.90625 0.76562-0.32422 0.16406-0.68359 0.25-1.0781 0.25-0.6875 0-1.2148-0.20703-1.5781-0.625-0.35547-0.42578-0.53125-1.0469-0.53125-1.8594z"/>
  </symbol>
  <symbol id="o" overflow="visible">
   <path d="m1-7.9688h3.4219c1.0078 0 1.7852 0.22656 2.3281 0.67188 0.53906 0.44922 0.8125 1.0898 0.8125 1.9219 0 0.83594-0.27344 1.4805-0.8125 1.9375-0.54297 0.44922-1.3203 0.67188-2.3281 0.67188h-1.3594v2.7656h-2.0625zm2.0625 1.4844v2.2344h1.1406c0.39453 0 0.70312-0.097656 0.92188-0.29688 0.21875-0.19531 0.32812-0.47266 0.32812-0.82812 0-0.35156-0.10938-0.625-0.32812-0.8125-0.21875-0.19531-0.52734-0.29688-0.92188-0.29688z"/>
  </symbol>
  <symbol id="n" overflow="visible">
   <path d="m0.92188-5.9844h1.9062v5.875c0 0.80078-0.19531 1.4102-0.57812 1.8281-0.38672 0.42578-0.94531 0.64062-1.6719 0.64062h-0.9375v-1.25h0.32812c0.36328 0 0.61328-0.085937 0.75-0.25 0.13281-0.16797 0.20312-0.49219 0.20312-0.96875zm0-2.3281h1.9062v1.5625h-1.9062z"/>
  </symbol>
  <symbol id="m" overflow="visible">
   <path d="m5.75-5.7969v1.5625c-0.26172-0.17578-0.52344-0.30469-0.78125-0.39062-0.26172-0.09375-0.53125-0.14062-0.8125-0.14062-0.53125 0-0.94922 0.15625-1.25 0.46875-0.29297 0.3125-0.4375 0.75-0.4375 1.3125s0.14453 1 0.4375 1.3125c0.30078 0.30469 0.71875 0.45312 1.25 0.45312 0.30078 0 0.58203-0.039062 0.84375-0.125 0.26953-0.09375 0.51953-0.22266 0.75-0.39062v1.5625c-0.30469 0.10547-0.60938 0.17969-0.92188 0.23438-0.30469 0.0625-0.60547 0.09375-0.90625 0.09375-1.0859 0-1.9336-0.27344-2.5469-0.82812-0.60547-0.55078-0.90625-1.3203-0.90625-2.3125 0-0.98828 0.30078-1.7578 0.90625-2.3125 0.61328-0.55078 1.4609-0.82812 2.5469-0.82812 0.3125 0 0.61719 0.03125 0.92188 0.09375 0.30078 0.054688 0.60156 0.13281 0.90625 0.23438z"/>
  </symbol>
 </defs>
 <g>
  <path d="m351.09 14.688c-70.656 0-138.41 28.07-188.38 78.031s-78.031 117.72-78.031 188.38c0 46.766 12.309 92.703 35.691 133.2 23.383 40.5 57.012 74.133 97.512 97.516 40.5 23.379 86.438 35.691 133.2 35.691s92.703-12.312 133.2-35.691c40.5-23.383 74.129-57.016 97.512-97.516 23.383-40.5 35.691-86.438 35.691-133.2 0-70.656-28.07-138.41-78.031-188.38s-117.72-78.031-188.38-78.031zm0 15.574 0.20312 0.007812 4.5391 0.10938-0.41797 16.508-4.3242-0.10156-3.5117 0.089844-0.41797-16.52 3.7148-0.085938zm-12.18 0.30859 0.41016 16.504-0.30469 0.007812-7.5117 0.57422-1.2539-16.465 7.7344-0.58594 0.20312-0.023438h0.21484zm25.586 0.058594 8.2383 0.62109-1.2539 16.465-8.2305-0.625zm-42.875 1.4141 2.082 16.383-8.1875 1.0391-2.0781-16.383zm59.734 0.10156 7.7148 0.98438 0.21094 0.019532 0.20703 0.035156 0.46484 0.089844-2.9023 16.25-0.32031-0.058594-7.457-0.93359zm-76.469 2.4336 2.9062 16.262-3.9023 0.69531-3.7852 0.87109-3.707-16.09 3.9492-0.91406 0.19922-0.046875 0.21094-0.039063zm93.195 0.14844 3.3398 0.59375 0.21094 0.035157 0.19922 0.046875 4.7383 1.0977-3.7148 16.09-4.5703-1.0547-3.1016-0.55469zm-110.12 3.5625 4.5156 15.887-7.9492 2.2539-4.5078-15.891zm127.04 0.21875 7.9414 2.2617-4.5078 15.883-7.9492-2.2578zm-143.25 4.6406 5.293 15.641-6.5352 2.2148-0.89062 0.34375-6.0508-15.363 1.082-0.42578 0.1875-0.074219 0.20312-0.0625zm159.44 0.25391 5.9414 2.0195 0.20312 0.0625 0.18359 0.078125 1.8359 0.72266-6.0547 15.363-1.6562-0.65234-5.7461-1.9492zm-175.31 5.6133 6.0625 15.363-1.9961 0.78125-5.2031 2.3516-6.8008-15.051 5.3203-2.4023 0.18359-0.089844 0.19141-0.070312zm191.15 0.29688 1.4961 0.58594 0.19141 0.070312 0.18359 0.089844 6.0664 2.7461-6.8047 15.039-5.9375-2.6758-1.2461-0.49219zm-206.93 6.832 7.5195 14.695-7.3438 3.7617-7.5273-14.699zm222.68 0.36328 7.3438 3.7734-7.5273 14.695-7.3438-3.7656zm-111.7 3.4492c122.11 0 221.13 99.031 221.13 221.14s-99.023 221.13-221.13 221.13-221.14-99.023-221.14-221.13 99.031-221.14 221.14-221.14zm0 3.918c-119.99 0-217.22 97.23-217.22 217.22 0 119.99 97.23 217.21 217.22 217.21 119.99 0 217.21-97.223 217.21-217.21 0-119.99-97.223-217.22-217.21-217.22zm-125.87 0.28906 8.2344 14.316-3.8711 2.2188-2.8594 1.832-8.9102-13.895 3.0312-1.9531 0.16797-0.10156 0.17969-0.10156zm252.44 0.40234 3.3242 1.9141 0.17969 0.10156 0.16797 0.10156 3.7148 2.3867-8.9102 13.902-3.543-2.2734-3.1641-1.8164zm-267.12 8.7539 9.5664 13.457-6.7344 4.7852-9.5625-13.457zm281.76 0.46875 6.7266 4.7852-9.5664 13.457-6.7266-4.7852zm-295.39 9.5273 10.203 12.98-5.0078 3.9375-1.1289 0.97656-10.812-12.477 1.2227-1.0625 0.14844-0.13281 0.15234-0.11719zm308.99 0.49609 4.5898 3.6094 0.15234 0.11719 0.14844 0.13281 1.8398 1.5898-10.816 12.484-1.7422-1.5117-4.3672-3.4297zm-321.98 10.324 10.809 12.484-1.1484 1.0039-4.5938 4.3594-11.391-11.945 4.6914-4.4805 0.14062-0.13281 0.15234-0.13281zm334.95 0.52734 0.72656 0.62891 0.14453 0.13281 0.14844 0.13281 5.2773 5.0352-11.391 11.945-5.1758-4.9219-0.54688-0.47266zm-347.42 11.449 11.945 11.395-5.6953 5.9805-11.953-11.391zm359.84 0.58594 5.3359 5.5938 0.13281 0.14453 0.13281 0.14844 0.34375 0.40234-12.473 10.816-0.18359-0.21484-5.2344-5.4922zm-371.22 11.918 12.484 10.812-2.3164 2.6758-2.668 3.3984-12.98-10.199 2.8281-3.6172 0.12891-0.14844 0.13281-0.14844zm382.58 0.60937 1.8672 2.1641 0.13281 0.14844 0.11719 0.14844 3.3359 4.2461-12.98 10.203-3.1641-4.0312-1.793-2.0664zm-393.35 12.918 13.453 9.5703-4.7812 6.7305-13.457-9.5742zm404.07 0.65625 4.7891 6.7344-13.457 9.5625-4.7852-6.7227zm-413.62 13.293 13.906 8.9102-2.9375 4.582-1.2031 2.0977-14.316-8.2344 1.2969-2.2539 0.097656-0.16797 0.10938-0.17188zm423.15 0.68359 2.6172 4.0781 0.10938 0.16797 0.097656 0.17187 1.7031 2.9492-14.32 8.2344-1.6055-2.7852-2.5078-3.9062zm-431.81 13.828 14.305 8.2344-0.32031 0.5625-3.2852 6.4141-14.695-7.5273 3.3711-6.5859 0.085937-0.17578 0.10547-0.17188zm440.44 0.70703 0.03125 0.042969 0.10547 0.17188 0.085937 0.17969 3.7383 7.2969-14.699 7.5352-3.5742-7-0.16406-0.30078 6.4609-3.3164zm-448.21 14.77 15.051 6.8008-3.1406 6.9336-0.085938 0.23047-0.011718-0.007813-0.015625 0.035157-0.71094-0.32031-14.625-5.7734 0.13281-0.33594 0.074218-0.1875 0.089844-0.18359zm455.9 0.73828 2.9102 6.4531 0.089844 0.17578 0.074218 0.19531 0.42969 1.0938-15.359 6.0508-0.38281-0.94922-2.8086-6.2188zm-355.84 14.102c10.938 0 21.789 2.3516 32.559 7.0508v38.324c-11.535-6.3242-20.895-9.4844-28.07-9.4844-4.7852 0-8.5898 1.1953-11.41 3.5898-2.7344 2.3047-4.1016 5.5117-4.1016 9.6133 0 7.1758 6.4531 15.25 19.355 24.223 7.6914 5.2969 15.469 12.773 23.328 22.43 7.9453 9.5703 11.922 20.68 11.922 33.328 0 14.781-5.1719 27.043-15.512 36.785-10.34 9.6562-23.453 14.484-39.348 14.484-10.852 0-21.621-2.5664-32.301-7.6914v-39.863c12.305 7.1797 22.645 10.766 31.02 10.766 4.8711 0 8.7148-1.3242 11.535-3.9727 2.8203-2.7344 4.2305-6.3242 4.2305-10.766 0-3.418-1.1562-6.6211-3.4609-9.6133-2.2227-2.9922-6.1094-6.6211-11.664-10.895-13.418-10.254-23.156-19.781-29.223-28.582-5.9844-8.8867-8.9727-18.758-8.9727-29.609 0-14.781 4.6562-26.832 13.969-36.145 9.3164-9.3125 21.363-13.973 36.145-13.973zm125.36 0c20.766 0 36.613 7.7344 47.551 23.199 11.023 15.469 16.535 37.559 16.535 66.27s-5.4258 51.012-16.277 66.906c-10.766 15.809-26.148 23.711-46.141 23.711-20.68 0-36.445-7.9023-47.297-23.711-10.852-15.895-16.277-38.797-16.277-68.703 0-27.598 5.4258-49.09 16.277-64.473 10.938-15.465 26.145-23.199 45.629-23.199zm136.63 0c10.938 0 21.789 2.3516 32.555 7.0508v38.324c-11.535-6.3242-20.891-9.4844-28.066-9.4844-4.7852 0-8.5898 1.1953-11.41 3.5898-2.7344 2.3047-4.1016 5.5117-4.1016 9.6133 0 7.1758 6.4531 15.25 19.355 24.223 7.6914 5.2969 15.465 12.773 23.328 22.43 7.9453 9.5703 11.918 20.68 11.918 33.328 0 14.781-5.168 27.043-15.508 36.785-10.34 9.6562-23.457 14.484-39.348 14.484-10.855 0-21.621-2.5664-32.301-7.6914v-39.863c12.305 7.1797 22.645 10.766 31.016 10.766 4.8711 0 8.7188-1.3242 11.539-3.9727 2.8164-2.7344 4.2266-6.3242 4.2266-10.766 0-3.418-1.1523-6.6211-3.4609-9.6133-2.2188-2.9922-6.1094-6.6211-11.66-10.895-13.418-10.254-23.16-19.781-29.227-28.582-5.9805-8.8867-8.9727-18.758-8.9727-29.609 0-14.781 4.6602-26.832 13.973-36.145s21.363-13.973 36.145-13.973zm-368.61 0.74219 15.359 6.0664-1.1094 2.8047-1.5508 4.5742-15.641-5.2969 1.6094-4.7695 0.070313-0.1875 0.082031-0.19531zm469 0.75391 0.87891 2.2422 0.082031 0.19531 0.058594 0.1875 1.875 5.5312-15.641 5.293-1.8594-5.457-0.019531-0.074218-0.74219-1.8633zm-474.64 15.629 15.887 4.5078-2.2617 7.9453-15.887-4.5117zm480.2 0.77734 2.2539 7.9414-15.883 4.5078-2.2578-7.9375zm-484.53 15.582 16.086 3.7109-1.2969 5.6367-0.36719 2.0234-16.254-2.9023 0.37891-2.1211 0.039063-0.20312 0.042969-0.19531zm488.82 0.78516 1.1953 5.1641 0.046875 0.19531 0.035157 0.20312 0.51953 2.918-16.254 2.9023-0.5-2.8164-1.1289-4.8477zm-246.61 4.5703c-14.016 0-21.023 16.449-21.023 49.344 0 21.191 1.7539 35.336 5.2578 42.426 3.5859 7.0938 8.7578 10.641 15.508 10.641 7.2617 0 12.816-3.5469 16.664-10.641 3.9297-7.0898 5.8945-20.977 5.8945-41.656 0-33.41-7.4336-50.113-22.301-50.113zm-245.49 11.238 16.258 2.9062-0.28125 1.5664-0.78516 6.1992-16.379-2.0781 0.82031-6.4766 0.027344-0.21484 0.039062-0.19922zm495.35 0.80469 0.16406 0.90234 0.03125 0.19531 0.03125 0.21484 0.92969 7.2734-16.387 2.0859-0.88281-6.9922-0.14453-0.77734zm-497.49 16.41 16.465 1.25-0.625 8.2344-16.469-1.2539zm499.56 0.80469 0.62109 8.2305-16.465 1.2578-0.62891-8.2344zm-500.5 16.094 16.504 0.41406-0.13672 5.5625 0.058594 2.2734-16.504 0.41797-0.070312-2.4766v-0.41406zm501.38 0.8125 0.13281 4.9648-8.25 0.20703 8.25 0.20703-0.21094 8.2539-16.508-0.41797 0.19922-8.043-0.11719-4.7539zm-484.75 15.691 0.035156 1.4141 0.48438 6.4102-16.465 1.25-0.5-6.4844-0.011718-0.21484-0.007813-0.20313-0.042969-1.7539zm467.77 5.3516 16.465 1.2461-0.62109 8.2305-16.469-1.2461zm-466.55 10.277 1.043 8.1953-16.387 2.082-1.0352-8.1953zm464.93 5.7344 16.379 2.0781-0.50391 4.0156-0.027344 0.20703-0.039062 0.21094-0.73828 4.1367-16.254-2.9023 0.70703-4.0039zm-462.57 10.188 0.9375 5.2383 0.56641 2.457-16.09 3.707-0.63281-2.7344-0.042969-0.20313-0.039063-0.19531-0.95703-5.3672zm460 5.2773 16.09 3.707-1.8633 8.0508-16.09-3.7188zm-456.64 10.461 0.17188 0.76562 1.9336 6.7891-15.887 4.5078-1.9844-6.9961-0.0625-0.20312-0.042969-0.19531-0.21484-0.95312zm452.79 5.168 15.895 4.5117-1.9648 6.8984-0.050781 0.19922-0.070313 0.19141-0.35156 1.0234-15.641-5.293 0.26953-0.78125zm-448.39 9.8867 2.6484 7.8242-15.641 5.2891-2.6484-7.8203zm443.55 5.4688 15.645 5.293-0.82422 2.4219-0.054688 0.19141-0.082031 0.19531-2.0898 5.2969-15.363-6.0547 1.9961-5.043zm-438.02 9.6562 1.293 3.2578 1.7852 3.957-15.047 6.8008-1.8867-4.1914-0.089844-0.18359-0.074218-0.17969-1.3398-3.4062zm432.29 4.9492 15.039 6.8125-3.3984 7.5195-15.039-6.8008zm-425.94 9.4102 3.7656 7.3477-14.695 7.5234-3.7656-7.3438zm419 5.1367 14.707 7.5273-2.2461 4.3789-0.085937 0.17578-0.10547 0.17578-1.6602 2.8945-14.316-8.2344 1.5664-2.7227zm-411.42 9.0742 2.8477 4.9414 1.1602 1.8164-13.902 8.9023-1.2734-1.9805-0.10938-0.17188-0.097656-0.17578-2.9414-5.1016zm403.74 4.7617 4.9219 3.1641 9.2422 5.3047-0.054688 0.10156-0.097656 0.17578-0.10938 0.16797-4.3945 6.8516-13.902-8.9102zm-395.27 8.9492 0.45312 0.70703 4.0625 5.7188-13.457 9.5625-4.1641-5.8555-0.12109-0.16406-0.097656-0.15625-0.58203-0.90234zm386.46 4.3984 13.461 9.5703-4.0391 5.6797-0.11328 0.16016-0.12109 0.15625-0.80078 1.0195-12.98-10.207 0.55859-0.70312 0.050781-0.070312zm-377.25 8.332 4.8047 6.1133 0.058594 0.0625 0.007812 0.015624-0.26562 0.20313-12.227 10.59-0.23828-0.28125-0.13281-0.15234-0.12891-0.15625-4.8672-6.1914zm367.55 4.5352 12.98 10.203-1.3008 1.6562-0.12109 0.15625-0.12891 0.15234-4.0273 4.6445-12.48-10.809 3.8828-4.4844zm-357.28 7.8789 1.957 2.2617 0.015625 0.011718 3.3516 3.5078-11.953 11.395-3.6172-3.7969-0.14062-0.14062-0.125-0.15625-1.9727-2.2695zm346.96 3.9805 11.953 11.402-5.6953 5.9727-11.953-11.391zm-336.15 7.4336 5.9727 5.7031-11.391 11.949-5.9727-5.6953zm324.79 3.9883 11.387 11.945-2.8906 2.7656-0.14844 0.13672-0.14453 0.12891-3.2148 2.7852-10.809-12.484 3.0312-2.6211zm-312.91 6.9062 3.543 3.0625 2.5 1.9688-10.203 12.984-2.6328-2.0664-0.15234-0.125-0.14844-0.13281-3.7148-3.2109zm301.12 3.4922 10.203 12.992-6.4922 5.1055-10.207-12.996zm-288.87 6.4414 6.6875 4.75-9.5664 13.457-6.6914-4.7578-0.16016-0.11328-0.15625-0.11719-0.035157-0.035156 5.6875-7.2344zm276.04 3.3086 9.5664 13.461-4.8438 3.4414-0.16406 0.12109-0.16797 0.10156-1.9414 1.2539-8.9102-13.91 1.8047-1.1562zm-262.82 5.8164 5.4688 3.5078 0.0625 0.039062 1.1094 0.64453-8.2188 14.312-1.1797-0.67969-0.17969-0.09375-0.16797-0.11328-5.8047-3.7227zm249.41 3.1094 8.9141 13.898-0.94531 0.61328-0.16797 0.10938-0.17969 0.09375-6.1758 3.5547-8.2344-14.316 6.1133-3.5195 0.070313-0.035156zm-235.61 5.1914 1.6523 0.95312 5.3008 2.7148-7.5273 14.695-5.4805-2.8047-0.18359-0.089843-0.16406-0.10547-1.8281-1.0469zm221.92 2.5391 7.5273 14.695-7.1914 3.6797-0.17578 0.09375-0.18359 0.082031-0.16016 0.074219-4.875-10.785-2.1328-4.1602 0.20312-0.10547zm-207.93 4.6016 7.5195 3.3984-6.8008 15.047-7.5195-3.4023zm193.42 2.375 6.8047 15.047-3.0664 1.3906-0.18359 0.078126-0.19141 0.074218-4.5508 1.793-6.0625-15.363 4.4258-1.7422zm-178.61 3.9336 3.9648 1.5664 3.3945 1.1484-5.293 15.645-3.5898-1.2188-0.20312-0.066406-0.1875-0.074219-4.1484-1.6406zm164.04 1.9141 5.293 15.648-7.8164 2.6445-5.3008-15.645zm-149.24 3.3164 7.9414 2.2578-4.5117 15.883-7.9375-2.2539zm133.91 1.5742 4.5078 15.891-5.8047 1.6523-0.39844 0.10156-2.1602 0.5-3.7148-16.09 1.9609-0.46094zm-118.36 2.6133 6.9883 1.6094 0.65625 0.11719-2.9023 16.25-0.89062-0.15625-0.21094-0.039063-0.19922-0.042969-7.1562-1.6484zm102.74 1.293 3.7188 16.09-1.5312 0.35547-0.19922 0.042969-0.21094 0.039063-6.5781 1.1758-2.9023-16.258 6.3477-1.1289zm-86.965 1.8867 2.6445 0.47266 5.1211 0.64844-2.0859 16.387-5.25-0.67188-0.21094-0.03125-0.20703-0.03125-2.918-0.52344zm71.523 0.80469 2.0781 16.383-8.1914 1.043-2.0781-16.383zm-55.984 1.2461 8.2383 0.63281-1.2539 16.465-8.2266-0.625zm39.98 0.4375 1.2539 16.469-5.2578 0.39844-0.20312 0.015625-0.21484 0.007813-2.9844 0.074219-0.41406-16.508 2.7891-0.066406zm-23.91 0.52344 6.7812 0.17188 1.0547-0.035156 0.41797 16.512-1.25 0.035156-0.20312 0.007813-0.21484-0.007813-7.0039-0.17578z"/>
  <use x="70" y="592.8125" xlink:href="#v"/>
  <use x="78.027344" y="592.8125" xlink:href="#d"/>
  <use x="83.421875" y="592.8125" xlink:href="#a"/>
  <use x="90.839844" y="592.8125" xlink:href="#b"/>
  <use x="98.21875" y="592.8125" xlink:href="#c"/>
  <use x="103.449219" y="592.8125" xlink:href="#a"/>
  <use x="110.867188" y="592.8125" xlink:href="#f"/>
  <use x="122.503906" y="592.8125" xlink:href="#l"/>
  <use x="130.332031" y="592.8125" xlink:href="#k"/>
  <use x="141.269531" y="592.8125" xlink:href="#j"/>
  <use x="150.421875" y="592.8125" xlink:href="#b"/>
  <use x="157.804688" y="592.8125" xlink:href="#i"/>
  <use x="164.316406" y="592.8125" xlink:href="#i"/>
  <use x="170.824219" y="592.8125" xlink:href="#b"/>
  <use x="178.207031" y="592.8125" xlink:href="#h"/>
  <use x="189.800781" y="592.8125" xlink:href="#u"/>
  <use x="198.273437" y="592.8125" xlink:href="#g"/>
  <use x="206.0625" y="592.8125" xlink:href="#b"/>
  <use x="213.441406" y="592.8125" xlink:href="#t"/>
  <use x="217.191406" y="592.8125" xlink:href="#a"/>
  <use x="224.609375" y="592.8125" xlink:href="#f"/>
  <use x="70" y="603.75" xlink:href="#s"/>
  <use x="74.757812" y="603.75" xlink:href="#d"/>
  <use x="80.152344" y="603.75" xlink:href="#e"/>
  <use x="87.667969" y="603.75" xlink:href="#r"/>
  <use x="102.871094" y="603.75" xlink:href="#c"/>
  <use x="108.101562" y="603.75" xlink:href="#g"/>
  <use x="115.886719" y="603.75" xlink:href="#a"/>
  <use x="127.113281" y="603.75" xlink:href="#q"/>
  <use x="136.265625" y="603.75" xlink:href="#e"/>
  <use x="143.78125" y="603.75" xlink:href="#p"/>
  <use x="151.566406" y="603.75" xlink:href="#h"/>
  <use x="163.160156" y="603.75" xlink:href="#o"/>
  <use x="171.175781" y="603.75" xlink:href="#d"/>
  <use x="176.570312" y="603.75" xlink:href="#e"/>
  <use x="184.085938" y="603.75" xlink:href="#n"/>
  <use x="187.835937" y="603.75" xlink:href="#a"/>
  <use x="195.253906" y="603.75" xlink:href="#m"/>
  <use x="201.734375" y="603.75" xlink:href="#c"/>
 </g>
</svg>
