<?xml version="1.0" encoding="UTF-8"?>
<svg width="700px" height="700px" version="1.1" viewBox="0 0 700 700" xmlns="http://www.w3.org/2000/svg" xmlns:xlink="http://www.w3.org/1999/xlink">
 <defs>
  <symbol id="v" overflow="visible">
   <path d="m14.656-0.875c-0.76172 0.39844-1.5547 0.69531-2.375 0.89062-0.8125 0.19531-1.6641 0.29688-2.5469 0.29688-2.6562 0-4.7617-0.73828-6.3125-2.2188-1.5547-1.4883-2.3281-3.5039-2.3281-6.0469 0-2.5508 0.77344-4.5664 2.3281-6.0469 1.5508-1.4883 3.6562-2.2344 6.3125-2.2344 0.88281 0 1.7344 0.10156 2.5469 0.29688 0.82031 0.19922 1.6133 0.49609 2.375 0.89062v3.2969c-0.76172-0.51953-1.5117-0.89844-2.25-1.1406-0.74219-0.23828-1.5234-0.35938-2.3438-0.35938-1.4688 0-2.625 0.46875-3.4688 1.4062-0.83594 0.9375-1.25 2.2344-1.25 3.8906 0 1.6484 0.41406 2.9375 1.25 3.875 0.84375 0.9375 2 1.4062 3.4688 1.4062 0.82031 0 1.6016-0.11719 2.3438-0.35938 0.73828-0.23828 1.4883-0.61719 2.25-1.1406z"/>
  </symbol>
  <symbol id="d" overflow="visible">
   <path d="m10.719-8.7031c-0.33594-0.15625-0.66797-0.26953-1-0.34375-0.32422-0.082031-0.65625-0.125-1-0.125-0.98047 0-1.7344 0.32031-2.2656 0.95312-0.53125 0.625-0.79688 1.5273-0.79688 2.7031v5.5156h-3.8125v-11.969h3.8125v1.9688c0.48828-0.78125 1.0508-1.3477 1.6875-1.7031 0.64453-0.36328 1.4102-0.54688 2.2969-0.54688 0.13281 0 0.27344 0.007812 0.42188 0.015625 0.14453 0.011719 0.36328 0.03125 0.65625 0.0625z"/>
  </symbol>
  <symbol id="a" overflow="visible">
   <path d="m13.781-6.0156v1.0938h-8.9375c0.09375 0.89844 0.41406 1.5703 0.96875 2.0156 0.55078 0.44922 1.3281 0.67188 2.3281 0.67188 0.80078 0 1.625-0.11719 2.4688-0.35938 0.84375-0.23828 1.7109-0.59766 2.6094-1.0781v2.9531c-0.90625 0.33594-1.8125 0.58984-2.7188 0.76562s-1.8125 0.26562-2.7188 0.26562c-2.1562 0-3.8398-0.54688-5.0469-1.6406-1.1992-1.1016-1.7969-2.6484-1.7969-4.6406 0-1.9453 0.58594-3.4766 1.7656-4.5938 1.1758-1.125 2.8008-1.6875 4.875-1.6875 1.875 0 3.375 0.57031 4.5 1.7031 1.1328 1.125 1.7031 2.6367 1.7031 4.5312zm-3.9375-1.2656c0-0.72656-0.21484-1.3125-0.64062-1.75-0.41797-0.44531-0.96875-0.67188-1.6562-0.67188-0.74219 0-1.3438 0.21094-1.8125 0.625-0.46094 0.41797-0.74609 1.0156-0.85938 1.7969z"/>
  </symbol>
  <symbol id="c" overflow="visible">
   <path d="m7.2031-5.3906c-0.80469 0-1.4062 0.13672-1.8125 0.40625-0.39844 0.27344-0.59375 0.67188-0.59375 1.2031 0 0.48047 0.16016 0.85938 0.48438 1.1406 0.32031 0.27344 0.77344 0.40625 1.3594 0.40625 0.71875 0 1.3203-0.25391 1.8125-0.76562 0.48828-0.51953 0.73438-1.1719 0.73438-1.9531v-0.4375zm5.8438-1.4375v6.8281h-3.8594v-1.7656c-0.51172 0.71875-1.0898 1.2461-1.7344 1.5781-0.63672 0.33203-1.418 0.5-2.3438 0.5-1.2422 0-2.2461-0.35938-3.0156-1.0781-0.77344-0.72656-1.1562-1.6719-1.1562-2.8281 0-1.3945 0.47656-2.4219 1.4375-3.0781 0.96875-0.65625 2.4883-0.98438 4.5625-0.98438h2.25v-0.29688c0-0.60156-0.24219-1.0469-0.71875-1.3281-0.48047-0.28125-1.2266-0.42188-2.2344-0.42188-0.8125 0-1.5742 0.085937-2.2812 0.25-0.71094 0.15625-1.3672 0.40234-1.9688 0.73438v-2.9219c0.82031-0.19531 1.6445-0.34766 2.4688-0.45312 0.82031-0.10156 1.6484-0.15625 2.4844-0.15625 2.1562 0 3.7109 0.42969 4.6719 1.2812 0.95703 0.84375 1.4375 2.2266 1.4375 4.1406z"/>
  </symbol>
  <symbol id="b" overflow="visible">
   <path d="m6.0156-15.359v3.3906h3.9375v2.7344h-3.9375v5.0781c0 0.55469 0.10938 0.92969 0.32812 1.125 0.21875 0.19922 0.65625 0.29688 1.3125 0.29688h1.9688v2.7344h-3.2812c-1.5117 0-2.5859-0.3125-3.2188-0.9375-0.625-0.63281-0.9375-1.707-0.9375-3.2188v-5.0781h-1.9062v-2.7344h1.9062v-3.3906z"/>
  </symbol>
  <symbol id="f" overflow="visible">
   <path d="m9.9688-10.219v-6.4062h3.8594v16.625h-3.8594v-1.7344c-0.52344 0.71094-1.1016 1.2305-1.7344 1.5625-0.63672 0.32031-1.3711 0.48438-2.2031 0.48438-1.4688 0-2.6797-0.58203-3.625-1.75-0.94922-1.1758-1.4219-2.6875-1.4219-4.5312s0.47266-3.3477 1.4219-4.5156c0.94531-1.1758 2.1562-1.7656 3.625-1.7656 0.83203 0 1.5664 0.16797 2.2031 0.5 0.63281 0.32422 1.2109 0.83594 1.7344 1.5312zm-2.5156 7.75c0.82031 0 1.4453-0.29688 1.875-0.89062 0.42578-0.60156 0.64062-1.4727 0.64062-2.6094 0-1.1445-0.21484-2.0156-0.64062-2.6094-0.42969-0.59375-1.0547-0.89062-1.875-0.89062-0.8125 0-1.4336 0.29688-1.8594 0.89062-0.42969 0.59375-0.64062 1.4648-0.64062 2.6094 0 1.1367 0.21094 2.0078 0.64062 2.6094 0.42578 0.59375 1.0469 0.89062 1.8594 0.89062z"/>
  </symbol>
  <symbol id="l" overflow="visible">
   <path d="m8.2031-2.4688c0.82031 0 1.4453-0.29688 1.875-0.89062 0.42578-0.60156 0.64062-1.4727 0.64062-2.6094 0-1.1445-0.21484-2.0156-0.64062-2.6094-0.42969-0.59375-1.0547-0.89062-1.875-0.89062-0.82422 0-1.4531 0.30469-1.8906 0.90625-0.4375 0.59375-0.65625 1.4609-0.65625 2.5938 0 1.1367 0.21875 2.0078 0.65625 2.6094 0.4375 0.59375 1.0664 0.89062 1.8906 0.89062zm-2.5469-7.75c0.53125-0.69531 1.1133-1.207 1.75-1.5312 0.64453-0.33203 1.3828-0.5 2.2188-0.5 1.4688 0 2.6758 0.58984 3.625 1.7656 0.94531 1.168 1.4219 2.6719 1.4219 4.5156s-0.47656 3.3555-1.4219 4.5312c-0.94922 1.168-2.1562 1.75-3.625 1.75-0.83594 0-1.5742-0.16797-2.2188-0.5-0.63672-0.33203-1.2188-0.84766-1.75-1.5469v1.7344h-3.8125v-16.625h3.8125z"/>
  </symbol>
  <symbol id="k" overflow="visible">
   <path d="m0.26562-11.969h3.8281l3.2188 8.125 2.7344-8.125h3.8125l-5.0312 13.094c-0.5 1.332-1.0898 2.2656-1.7656 2.7969-0.66797 0.53125-1.5547 0.79688-2.6562 0.79688h-2.2188v-2.5h1.2031c0.64453 0 1.1133-0.10547 1.4062-0.3125 0.30078-0.21094 0.53125-0.57812 0.6875-1.1094l0.10938-0.34375z"/>
  </symbol>
  <symbol id="j" overflow="visible">
   <path d="m1.2344-15.953h13.406v2.5l-8.5625 10.344h8.7969v3.1094h-13.891v-2.4844l8.5469-10.359h-8.2969z"/>
  </symbol>
  <symbol id="u" overflow="visible">
   <path d="m1.8438-11.969h3.8125v11.969h-3.8125zm0-4.6562h3.8125v3.125h-3.8125z"/>
  </symbol>
  <symbol id="t" overflow="visible">
   <path d="m1.8438-16.625h3.8125v16.625h-3.8125z"/>
  </symbol>
  <symbol id="i" overflow="visible">
   <path d="m13.859-7.2812v7.2812h-3.8438v-5.5781c0-1.0312-0.027344-1.7383-0.078125-2.125-0.042969-0.39453-0.12109-0.6875-0.23438-0.875-0.14844-0.25-0.35156-0.44141-0.60938-0.57812-0.25-0.14453-0.54297-0.21875-0.875-0.21875-0.79297 0-1.418 0.3125-1.875 0.9375-0.46094 0.61719-0.6875 1.4648-0.6875 2.5469v5.8906h-3.8125v-11.969h3.8125v1.75c0.58203-0.69531 1.1953-1.207 1.8438-1.5312 0.64453-0.33203 1.3594-0.5 2.1406-0.5 1.3828 0 2.4297 0.42969 3.1406 1.2812 0.71875 0.84375 1.0781 2.0742 1.0781 3.6875z"/>
  </symbol>
  <symbol id="s" overflow="visible">
   <path d="m11.688-2.9062h-6.4375l-1.0156 2.9062h-4.125l5.9062-15.953h4.9062l5.9062 15.953h-4.1406zm-5.4062-2.9531h4.375l-2.1875-6.3438z"/>
  </symbol>
  <symbol id="h" overflow="visible">
   <path d="m1.7031-4.6562v-7.3125h3.8438v1.2031c0 0.64844-0.007813 1.4609-0.015625 2.4375v1.9688c0 0.96094 0.023438 1.6523 0.078125 2.0781 0.050781 0.41797 0.13281 0.72656 0.25 0.92188 0.15625 0.25 0.35938 0.44531 0.60938 0.57812 0.25781 0.13672 0.55078 0.20312 0.875 0.20312 0.80078 0 1.4258-0.30469 1.875-0.92188 0.45703-0.61328 0.6875-1.4688 0.6875-2.5625v-5.9062h3.8281v11.969h-3.8281v-1.7344c-0.57422 0.69922-1.1836 1.2148-1.8281 1.5469-0.64844 0.33203-1.3555 0.5-2.125 0.5-1.3867 0-2.4453-0.42188-3.1719-1.2656-0.71875-0.85156-1.0781-2.0859-1.0781-3.7031z"/>
  </symbol>
  <symbol id="g" overflow="visible">
   <path d="m9.7031-16.625v2.5156h-2.1094c-0.54297 0-0.92188 0.10156-1.1406 0.29688-0.21094 0.19922-0.3125 0.53906-0.3125 1.0156v0.82812h3.2656v2.7344h-3.2656v9.2344h-3.8281v-9.2344h-1.8906v-2.7344h1.8906v-0.82812c0-1.3008 0.36328-2.2656 1.0938-2.8906 0.72656-0.625 1.8516-0.9375 3.375-0.9375z"/>
  </symbol>
  <symbol id="e" overflow="visible">
   <path d="m7.5312-9.5156c-0.84375 0-1.4922 0.30859-1.9375 0.92188-0.44922 0.60547-0.67188 1.4805-0.67188 2.625 0 1.1484 0.22266 2.0273 0.67188 2.6406 0.44531 0.60547 1.0938 0.90625 1.9375 0.90625 0.83203 0 1.4688-0.30078 1.9062-0.90625 0.44531-0.61328 0.67188-1.4922 0.67188-2.6406 0-1.1445-0.22656-2.0195-0.67188-2.625-0.4375-0.61328-1.0742-0.92188-1.9062-0.92188zm0-2.7344c2.0508 0 3.6562 0.55859 4.8125 1.6719 1.1641 1.1055 1.75 2.6406 1.75 4.6094s-0.58594 3.5117-1.75 4.625c-1.1562 1.1055-2.7617 1.6562-4.8125 1.6562-2.0625 0-3.6797-0.55078-4.8438-1.6562-1.168-1.1133-1.75-2.6562-1.75-4.625s0.58203-3.5039 1.75-4.6094c1.1641-1.1133 2.7812-1.6719 4.8438-1.6719z"/>
  </symbol>
  <symbol id="r" overflow="visible">
   <path d="m12.922-9.9688c0.48828-0.75 1.0625-1.3164 1.7188-1.7031 0.66406-0.38281 1.3984-0.57812 2.2031-0.57812 1.375 0 2.4219 0.42969 3.1406 1.2812 0.71875 0.84375 1.0781 2.0742 1.0781 3.6875v7.2812h-3.8438v-6.2344c0.007812-0.09375 0.015625-0.1875 0.015625-0.28125v-0.4375c0-0.84375-0.125-1.457-0.375-1.8438-0.25-0.38281-0.65234-0.57812-1.2031-0.57812-0.73047 0-1.293 0.30469-1.6875 0.90625-0.38672 0.59375-0.58984 1.4609-0.60938 2.5938v5.875h-3.8438v-6.2344c0-1.3203-0.11719-2.1758-0.34375-2.5625-0.23047-0.38281-0.63672-0.57812-1.2188-0.57812-0.73047 0-1.2969 0.30469-1.7031 0.90625-0.39844 0.60547-0.59375 1.4648-0.59375 2.5781v5.8906h-3.8438v-11.969h3.8438v1.75c0.46875-0.66406 1.0039-1.1719 1.6094-1.5156 0.61328-0.34375 1.2891-0.51562 2.0312-0.51562 0.82031 0 1.5508 0.19922 2.1875 0.59375 0.63281 0.39844 1.1133 0.96094 1.4375 1.6875z"/>
  </symbol>
  <symbol id="q" overflow="visible">
   <path d="m13.859-7.2812v7.2812h-3.8438v-5.5469c0-1.0508-0.027344-1.7695-0.078125-2.1562-0.042969-0.39453-0.12109-0.6875-0.23438-0.875-0.14844-0.25-0.35156-0.44141-0.60938-0.57812-0.25-0.14453-0.54297-0.21875-0.875-0.21875-0.79297 0-1.418 0.3125-1.875 0.9375-0.46094 0.61719-0.6875 1.4648-0.6875 2.5469v5.8906h-3.8125v-16.625h3.8125v6.4062c0.58203-0.69531 1.1953-1.207 1.8438-1.5312 0.64453-0.33203 1.3594-0.5 2.1406-0.5 1.3828 0 2.4297 0.42969 3.1406 1.2812 0.71875 0.84375 1.0781 2.0742 1.0781 3.6875z"/>
  </symbol>
  <symbol id="p" overflow="visible">
   <path d="m2.0156-15.953h4.5781l5.8125 10.938v-10.938h3.8906v15.953h-4.5938l-5.7969-10.938v10.938h-3.8906z"/>
  </symbol>
  <symbol id="o" overflow="visible">
   <path d="m2.0156-15.953h6.8125c2.0312 0 3.5859 0.45312 4.6719 1.3594 1.0938 0.89844 1.6406 2.1797 1.6406 3.8438 0 1.6797-0.54688 2.9688-1.6406 3.875-1.0859 0.89844-2.6406 1.3438-4.6719 1.3438h-2.7031v5.5312h-4.1094zm4.1094 2.9844v4.4531h2.2656c0.80078 0 1.4141-0.19141 1.8438-0.57812 0.4375-0.38281 0.65625-0.9375 0.65625-1.6562 0-0.70703-0.21875-1.2539-0.65625-1.6406-0.42969-0.38281-1.043-0.57812-1.8438-0.57812z"/>
  </symbol>
  <symbol id="n" overflow="visible">
   <path d="m1.8438-11.969h3.8125v11.75c0 1.6016-0.38672 2.8281-1.1562 3.6719-0.76172 0.84375-1.8711 1.2656-3.3281 1.2656h-1.8906v-2.5h0.65625c0.72656 0 1.2266-0.16797 1.5-0.5 0.26953-0.32422 0.40625-0.96875 0.40625-1.9375zm0-4.6562h3.8125v3.125h-3.8125z"/>
  </symbol>
  <symbol id="m" overflow="visible">
   <path d="m11.5-11.594v3.125c-0.52344-0.35156-1.043-0.61328-1.5625-0.78125-0.52344-0.17578-1.0625-0.26562-1.625-0.26562-1.0742 0-1.9062 0.3125-2.5 0.9375s-0.89062 1.4961-0.89062 2.6094c0 1.1172 0.29688 1.9844 0.89062 2.6094s1.4258 0.9375 2.5 0.9375c0.59375 0 1.1562-0.085937 1.6875-0.26562 0.53906-0.17578 1.0391-0.44141 1.5-0.79688v3.125c-0.59375 0.23047-1.1992 0.39453-1.8125 0.5-0.61719 0.11328-1.2344 0.17188-1.8594 0.17188-2.1562 0-3.8438-0.55078-5.0625-1.6562-1.2188-1.1133-1.8281-2.6562-1.8281-4.625s0.60938-3.5039 1.8281-4.6094c1.2188-1.1133 2.9062-1.6719 5.0625-1.6719 0.625 0 1.2383 0.058594 1.8438 0.17188 0.61328 0.10547 1.2227 0.26562 1.8281 0.48438z"/>
  </symbol>
 </defs>
 <g>
  <path d="m283.28 182.3c0 4.0859 3.3086 7.3945 7.3945 7.3945 5.9062-0.011719 11.578 2.3281 15.762 6.4961 4.1875 4.1719 6.543 9.8359 6.5508 15.746 0.007813 5.9062-2.332 11.574-6.5078 15.758-4.1719 4.1836-9.8398 6.5352-15.746 6.5391-5.9102 0.003907-11.578-2.3398-15.758-6.5195-4.1797-4.1758-6.5273-9.8398-6.5273-15.75h14.832c0 3.0117 1.8164 5.7266 4.6016 6.875 2.7852 1.1484 5.9883 0.50391 8.1094-1.6328 2.125-2.1367 2.75-5.3398 1.5859-8.1172-1.1641-2.7812-3.8906-4.582-6.9023-4.5625-5.9102 0-11.574-2.3477-15.754-6.5273-4.1758-4.1797-6.5195-9.8477-6.5156-15.758 0.003906-5.9062 2.3555-11.57 6.5391-15.746 4.1797-4.1719 9.8516-6.5156 15.758-6.5078 5.9102 0.007812 11.574 2.3633 15.742 6.5508 4.1719 4.1836 6.5117 9.8555 6.5 15.762h-14.832c0.15625-2.0625-0.55078-4.1016-1.9609-5.6211-1.4062-1.5195-3.3828-2.3867-5.457-2.3867-2.0703 0-4.0469 0.86719-5.457 2.3867-1.4062 1.5195-2.1172 3.5586-1.957 5.6211zm126.04 37.055v0.003906c-4.0898 0-7.4141-3.3047-7.4375-7.3945h-14.832c0 5.9062 2.3477 11.57 6.5234 15.746 4.1758 4.1758 9.8398 6.5234 15.746 6.5234s11.57-2.3477 15.746-6.5234c4.1758-4.1758 6.5234-9.8398 6.5234-15.746s-2.3477-11.57-6.5234-15.746c-4.1758-4.1758-9.8398-6.5234-15.746-6.5234-3.0156 0.019531-5.7422-1.7852-6.9062-4.5703-1.1602-2.7812-0.52734-5.9922 1.6055-8.125 2.1328-2.1328 5.3398-2.7656 8.125-1.6055 2.7812 1.1641 4.5898 3.8906 4.5703 6.9062h14.832c0.011719-5.9102-2.3281-11.582-6.5039-15.77-4.1719-4.1836-9.8398-6.5391-15.75-6.543-5.9102-0.003907-11.582 2.3438-15.762 6.5234-4.1797 4.1797-6.5273 9.8516-6.5234 15.762 0.003906 5.9102 2.3594 11.578 6.543 15.754 4.1875 4.1719 9.8594 6.5117 15.77 6.5 3.875 0.29688 6.8672 3.5273 6.8672 7.4141 0 3.8867-2.9922 7.1211-6.8672 7.418zm-59.324 14.836c-5.8906-0.011718-11.539-2.3594-15.703-6.5234s-6.5117-9.8125-6.5234-15.703v-29.664c0-7.9375 4.2383-15.277 11.113-19.246 6.8789-3.9688 15.348-3.9688 22.227 0 6.875 3.9688 11.113 11.309 11.113 19.246v29.664c-0.011718 5.8906-2.3594 11.539-6.5234 15.703s-9.8125 6.5117-15.703 6.5234zm0-14.832c4.082 0 7.3945-3.3125 7.3945-7.3945v-29.664c0-4.082-3.3125-7.3906-7.3945-7.3906s-7.3945 3.3086-7.3945 7.3906v29.664c0 1.9609 0.78125 3.8398 2.168 5.2266 1.3867 1.3867 3.2656 2.168 5.2266 2.168zm0 88.988c-29.512 0.011719-57.82-11.703-78.691-32.566-20.875-20.863-32.605-49.164-32.609-78.676-0.003907-29.512 11.719-57.816 32.586-78.688 20.871-20.867 49.172-32.59 78.688-32.586 29.512 0.003906 57.812 11.734 78.676 32.609 20.859 20.871 32.574 49.18 32.562 78.691-0.023438 29.488-11.746 57.762-32.598 78.613-20.852 20.852-49.125 32.578-78.613 32.602zm0-14.832c25.527 0 50.008-10.141 68.059-28.191 18.051-18.051 28.191-42.531 28.191-68.059 0-25.527-10.141-50.008-28.191-68.059-18.051-18.051-42.531-28.191-68.059-28.191s-50.008 10.141-68.059 28.191c-18.051 18.051-28.191 42.531-28.191 68.059 0.070312 25.504 10.23 49.945 28.266 67.98 18.039 18.035 42.48 28.199 67.984 28.27zm-200.2 177.97h14.832v-14.832l-14.832 0.003906zm0-29.664h14.832v-14.828h-14.832zm0-44.492v14.832h14.832v-14.832zm400.4-29.836h-14.832v14.832h14.832zm0 29.664h-14.832v14.832h14.832zm0 44.492v-14.656h-14.832v14.875zm-73.938-126.18 103.6 31.895v163.8l-104.04-32.023-125.82 29.617-125.78-29.617-104.08 32.023v-163.8l103.6-31.895 37.145 9.2734-26.25-32.289v0.003906c-21.312-26.434-32.938-59.363-32.945-93.32v-2.0117c0-52.984 28.27-101.95 74.156-128.44 45.887-26.492 102.43-26.492 148.31 0 45.887 26.492 74.156 75.457 74.156 128.44v2.0117c-0.035156 33.965-11.691 66.898-33.031 93.32l-26.25 32.289zm-229.99-32.332 85.312 105.39c4.4922 5.5703 11.262 8.8047 18.418 8.8047s13.926-3.2344 18.418-8.8047l85.312-105.39c19.199-23.789 29.695-53.426 29.75-84v-2.0117c-1.1992-46.859-26.891-89.656-67.684-112.75-40.797-23.09-90.711-23.09-131.5 0s-66.488 65.887-67.688 112.75v2.0117c0.03125 30.562 10.496 60.199 29.664 84zm59.02 96.25c-28.961 6.125-44.273 17.062-44.273 25.113 0 12.383 33.863 29.664 88.988 29.664s88.988-17.5 88.988-29.664c0-8.0508-15.312-18.988-44.273-25.113l-14.789 18.242-0.003907 0.003906c-7.3008 9.043-18.301 14.301-29.926 14.301s-22.625-5.2578-29.926-14.301zm-170.32 111.7 81.551-25.07v-132.82l-81.551 25.113zm215.03 2.4062 118.65-27.914v-133.09l-45.062 11.242-18.461 22.969c30.625 7.832 48.695 21.875 48.695 38.02 0 28.918-53.508 44.492-103.82 44.492-50.312 0.003906-103.82-15.574-103.82-44.492 0-16.363 17.98-30.188 48.695-38.02l-18.461-22.793-45.062-11.418v132.91zm215.03-135.19-81.551-25.113v132.78l81.551 25.113z"/>

 </g>
</svg>
