<?xml version="1.0" encoding="UTF-8"?>
<svg width="700px" height="700px" version="1.1" viewBox="0 0 700 700" xmlns="http://www.w3.org/2000/svg" xmlns:xlink="http://www.w3.org/1999/xlink">
 <defs>
  <symbol id="o" overflow="visible">
   <path d="m29.312-1.75c-1.5117 0.78125-3.0898 1.3711-4.7344 1.7656-1.6367 0.40625-3.3398 0.60938-5.1094 0.60938-5.3125 0-9.5273-1.4844-12.641-4.4531-3.1055-2.9688-4.6562-7-4.6562-12.094s1.5508-9.125 4.6562-12.094c3.1133-2.9688 7.3281-4.4531 12.641-4.4531 1.7695 0 3.4727 0.19922 5.1094 0.59375 1.6445 0.39844 3.2227 0.99219 4.7344 1.7812v6.5938c-1.5312-1.0391-3.0391-1.8008-4.5156-2.2812-1.4805-0.48828-3.0391-0.73438-4.6719-0.73438-2.9375 0-5.2461 0.94531-6.9219 2.8281-1.6797 1.875-2.5156 4.4648-2.5156 7.7656 0 3.293 0.83594 5.8828 2.5156 7.7656 1.6758 1.875 3.9844 2.8125 6.9219 2.8125 1.6328 0 3.1914-0.23828 4.6719-0.71875 1.4766-0.48828 2.9844-1.2539 4.5156-2.2969z"/>
  </symbol>
  <symbol id="j" overflow="visible">
   <path d="m21.453-17.406c-0.67969-0.3125-1.3516-0.53906-2.0156-0.6875-0.65625-0.15625-1.3203-0.23438-1.9844-0.23438-1.9688 0-3.4844 0.63281-4.5469 1.8906-1.0547 1.2617-1.5781 3.0703-1.5781 5.4219v11.016h-7.6562v-23.922h7.6562v3.9219c0.97656-1.5625 2.1016-2.7031 3.375-3.4219 1.2812-0.71875 2.8125-1.0781 4.5938-1.0781 0.25 0 0.52344 0.011719 0.82812 0.03125 0.30078 0.023438 0.73438 0.070312 1.2969 0.14062z"/>
  </symbol>
  <symbol id="b" overflow="visible">
   <path d="m27.562-12.031v2.1875h-17.891c0.1875 1.793 0.83203 3.1367 1.9375 4.0312 1.1133 0.89844 2.6719 1.3438 4.6719 1.3438 1.6016 0 3.25-0.23438 4.9375-0.70312 1.6875-0.47656 3.4219-1.2031 5.2031-2.1719v5.8906c-1.8047 0.6875-3.6094 1.2031-5.4219 1.5469-1.8125 0.35156-3.6211 0.53125-5.4219 0.53125-4.3359 0-7.7031-1.0977-10.109-3.2969-2.3984-2.207-3.5938-5.2969-3.5938-9.2656 0-3.9062 1.1758-6.9727 3.5312-9.2031 2.3633-2.2383 5.6094-3.3594 9.7344-3.3594 3.7578 0 6.7695 1.1367 9.0312 3.4062 2.2578 2.2617 3.3906 5.2812 3.3906 9.0625zm-7.8594-2.5312c0-1.457-0.42969-2.6289-1.2812-3.5156-0.84375-0.89453-1.9492-1.3438-3.3125-1.3438-1.4922 0-2.6992 0.41797-3.625 1.25-0.91797 0.83594-1.4922 2.0391-1.7188 3.6094z"/>
  </symbol>
  <symbol id="a" overflow="visible">
   <path d="m14.391-10.766c-1.5938 0-2.793 0.27344-3.5938 0.8125-0.80469 0.54297-1.2031 1.3398-1.2031 2.3906 0 0.96875 0.32031 1.7305 0.96875 2.2812 0.64453 0.54297 1.5469 0.8125 2.7031 0.8125 1.4375 0 2.6445-0.51562 3.625-1.5469 0.98828-1.0312 1.4844-2.3203 1.4844-3.875v-0.875zm11.688-2.8906v13.656h-7.7031v-3.5469c-1.0312 1.4492-2.1875 2.5078-3.4688 3.1719s-2.8398 1-4.6719 1c-2.4805 0-4.4961-0.72266-6.0469-2.1719-1.543-1.4453-2.3125-3.3203-2.3125-5.625 0-2.8125 0.96094-4.8672 2.8906-6.1719 1.9375-1.3125 4.9688-1.9688 9.0938-1.9688h4.5156v-0.60938c0-1.207-0.48047-2.0938-1.4375-2.6562-0.94922-0.5625-2.4375-0.84375-4.4688-0.84375-1.6367 0-3.1562 0.16797-4.5625 0.5-1.4062 0.32422-2.7188 0.8125-3.9375 1.4688v-5.8281c1.6445-0.40625 3.2891-0.70703 4.9375-0.90625 1.6562-0.20703 3.3047-0.3125 4.9531-0.3125 4.3203 0 7.4375 0.85547 9.3438 2.5625 1.9141 1.6992 2.875 4.4609 2.875 8.2812z"/>
  </symbol>
  <symbol id="i" overflow="visible">
   <path d="m12.031-30.719v6.7969h7.875v5.4688h-7.875v10.141c0 1.1172 0.21875 1.8711 0.65625 2.2656 0.4375 0.38672 1.3125 0.57812 2.625 0.57812h3.9375v5.4688h-6.5625c-3.0234 0-5.1641-0.62891-6.4219-1.8906-1.2617-1.2578-1.8906-3.3984-1.8906-6.4219v-10.141h-3.7969v-5.4688h3.7969v-6.7969z"/>
  </symbol>
  <symbol id="h" overflow="visible">
   <path d="m19.953-20.422v-12.812h7.6875v33.234h-7.6875v-3.4531c-1.0547 1.4062-2.2148 2.4375-3.4844 3.0938-1.2734 0.65625-2.7422 0.98438-4.4062 0.98438-2.9492 0-5.3711-1.1719-7.2656-3.5156-1.8867-2.3438-2.8281-5.3594-2.8281-9.0469s0.94141-6.7031 2.8281-9.0469c1.8945-2.3438 4.3164-3.5156 7.2656-3.5156 1.6562 0 3.1172 0.33594 4.3906 1 1.2812 0.65625 2.4453 1.6836 3.5 3.0781zm-5.0469 15.484c1.6445 0 2.8945-0.59766 3.75-1.7969 0.86328-1.1953 1.2969-2.9297 1.2969-5.2031 0-2.2812-0.43359-4.0195-1.2969-5.2188-0.85547-1.1953-2.1055-1.7969-3.75-1.7969-1.625 0-2.8711 0.60156-3.7344 1.7969-0.85547 1.1992-1.2812 2.9375-1.2812 5.2188 0 2.2734 0.42578 4.0078 1.2812 5.2031 0.86328 1.1992 2.1094 1.7969 3.7344 1.7969z"/>
  </symbol>
  <symbol id="g" overflow="visible">
   <path d="m16.406-4.9375c1.6328 0 2.8828-0.59766 3.75-1.7969 0.86328-1.1953 1.2969-2.9297 1.2969-5.2031 0-2.2812-0.43359-4.0195-1.2969-5.2188-0.86719-1.1953-2.1172-1.7969-3.75-1.7969-1.6367 0-2.8906 0.60547-3.7656 1.8125-0.875 1.1992-1.3125 2.9336-1.3125 5.2031 0 2.2617 0.4375 3.9961 1.3125 5.2031 0.875 1.1992 2.1289 1.7969 3.7656 1.7969zm-5.0781-15.484c1.0508-1.3945 2.2188-2.4219 3.5-3.0781 1.2812-0.66406 2.7539-1 4.4219-1 2.9453 0 5.3672 1.1719 7.2656 3.5156 1.8945 2.3438 2.8438 5.3594 2.8438 9.0469s-0.94922 6.7031-2.8438 9.0469c-1.8984 2.3438-4.3203 3.5156-7.2656 3.5156-1.668 0-3.1406-0.33594-4.4219-1s-2.4492-1.6914-3.5-3.0781v3.4531h-7.6562v-33.234h7.6562z"/>
  </symbol>
  <symbol id="f" overflow="visible">
   <path d="m0.53125-23.922h7.6562l6.4219 16.234 5.4688-16.234h7.6562l-10.062 26.188c-1.0117 2.6641-2.1953 4.5234-3.5469 5.5781-1.3438 1.0625-3.1211 1.5938-5.3281 1.5938h-4.4219v-5.0156h2.3906c1.3008 0 2.2422-0.21094 2.8281-0.625 0.59375-0.40625 1.0547-1.1484 1.3906-2.2188l0.20312-0.65625z"/>
  </symbol>
  <symbol id="e" overflow="visible">
   <path d="m4.0156-31.891h8.2188v11.641l11.859-11.641h9.5469l-15.359 15.094 16.938 16.797h-10.281l-12.703-12.562v12.562h-8.2188z"/>
  </symbol>
  <symbol id="n" overflow="visible">
   <path d="m25.844-19.953c0.96875-1.4766 2.1172-2.6016 3.4531-3.375 1.332-0.78125 2.7969-1.1719 4.3906-1.1719 2.75 0 4.8438 0.85156 6.2812 2.5469 1.4375 1.6875 2.1562 4.1523 2.1562 7.3906v14.562h-7.6875v-12.469c0.007812-0.1875 0.019531-0.37891 0.03125-0.57812 0.007812-0.19531 0.015625-0.48438 0.015625-0.85938 0-1.6953-0.25-2.9258-0.75-3.6875-0.5-0.75781-1.3086-1.1406-2.4219-1.1406-1.4492 0-2.5703 0.60156-3.3594 1.7969-0.79297 1.1992-1.2031 2.9297-1.2344 5.1875v11.75h-7.6875v-12.469c0-2.6562-0.23047-4.3633-0.6875-5.125-0.44922-0.75781-1.2578-1.1406-2.4219-1.1406-1.4688 0-2.6055 0.60547-3.4062 1.8125-0.79297 1.1992-1.1875 2.918-1.1875 5.1562v11.766h-7.7031v-23.922h7.7031v3.5c0.9375-1.3516 2.0156-2.3672 3.2344-3.0469 1.2188-0.6875 2.5547-1.0312 4.0156-1.0312 1.6562 0 3.1133 0.40234 4.375 1.2031 1.2695 0.79297 2.2344 1.9062 2.8906 3.3438z"/>
  </symbol>
  <symbol id="d" overflow="visible">
   <path d="m3.6719-23.922h7.6562v23.922h-7.6562zm0-9.3125h7.6562v6.2344h-7.6562z"/>
  </symbol>
  <symbol id="c" overflow="visible">
   <path d="m27.734-14.562v14.562h-7.7031v-11.156c0-2.0625-0.046875-3.4844-0.14062-4.2656-0.085937-0.78125-0.24219-1.3594-0.46875-1.7344-0.30469-0.5-0.71094-0.88281-1.2188-1.1562-0.51172-0.28125-1.0938-0.42188-1.75-0.42188-1.5938 0-2.8516 0.61719-3.7656 1.8438-0.90625 1.2305-1.3594 2.9375-1.3594 5.125v11.766h-7.6562v-23.922h7.6562v3.5c1.1445-1.3945 2.3633-2.4219 3.6562-3.0781 1.3008-0.66406 2.7383-1 4.3125-1 2.7578 0 4.8516 0.85156 6.2812 2.5469 1.4375 1.6875 2.1562 4.1523 2.1562 7.3906z"/>
  </symbol>
  <symbol id="m" overflow="visible">
   <path d="m32.688-2.375c-2.0547 1-4.1836 1.75-6.3906 2.25-2.2109 0.5-4.4844 0.75-6.8281 0.75-5.3125 0-9.5273-1.4844-12.641-4.4531-3.1055-2.9688-4.6562-7-4.6562-12.094 0-5.1328 1.5781-9.1758 4.7344-12.125 3.1641-2.9453 7.5-4.4219 13-4.4219 2.125 0 4.1562 0.19922 6.0938 0.59375 1.9453 0.39844 3.7852 0.99219 5.5156 1.7812v6.5938c-1.7812-1.0078-3.5547-1.7656-5.3125-2.2656-1.7617-0.5-3.5273-0.75-5.2969-0.75-3.2734 0-5.793 0.91797-7.5625 2.75-1.7734 1.8359-2.6562 4.4492-2.6562 7.8438 0 3.375 0.85156 5.9844 2.5625 7.8281 1.707 1.8359 4.1328 2.75 7.2812 2.75 0.85156 0 1.6445-0.050781 2.375-0.15625 0.73828-0.10156 1.3984-0.26953 1.9844-0.5v-6.2031h-5.0312v-5.5h12.828z"/>
  </symbol>
  <symbol id="l" overflow="visible">
   <path d="m3.6719-33.234h7.6562v18.094l8.7969-8.7812h8.8906l-11.688 10.969 12.594 12.953h-9.2656l-9.3281-9.9688v9.9688h-7.6562z"/>
  </symbol>
  <symbol id="k" overflow="visible">
   <path d="m1.5312-23.922h7.4375l4.0156 16.484 4.0469-16.484h6.375l4.0156 16.312 4.0469-16.312h7.4375l-6.3125 23.922h-8.3438l-4.0469-16.453-4.0156 16.453h-8.3438z"/>
  </symbol>
 </defs>
 <g>
  <path d="m157.5 113.75c-21.57 0-41.566 11.289-52.715 29.754-11.148 18.461-11.824 41.414-1.7812 60.504l46.754 88.82c1.5117 2.875 4.4922 4.6758 7.7422 4.6758s6.2305-1.8008 7.7422-4.6758l46.75-88.82h0.003906c10.043-19.09 9.3672-42.043-1.7812-60.504-11.148-18.465-31.145-29.754-52.715-29.754zm39.008 82.102-39.008 74.113-39.008-74.113c-7.1836-13.664-6.6992-30.086 1.2812-43.301 7.9805-13.215 22.289-21.289 37.727-21.289s29.746 8.0742 37.727 21.289c7.9805 13.215 8.4648 29.637 1.2812 43.301z"/>
  <path d="m157.5 146.56c-7.543 0-14.773 2.9961-20.109 8.3281-5.332 5.3359-8.3281 12.566-8.3281 20.109s2.9961 14.773 8.3281 20.109c5.3359 5.332 12.566 8.3281 20.109 8.3281s14.773-2.9961 20.109-8.3281c5.332-5.3359 8.3281-12.566 8.3281-20.109-0.007812-7.5391-3.0078-14.766-8.3398-20.098-5.332-5.332-12.559-8.332-20.098-8.3398zm0 39.375c-4.4219 0-8.4102-2.6641-10.105-6.75-1.6914-4.0898-0.75781-8.793 2.3711-11.922s7.832-4.0625 11.922-2.3711c4.0859 1.6953 6.75 5.6836 6.75 10.105-0.007812 6.0352-4.9023 10.93-10.938 10.938z"/>
  <path d="m87.5 551.25h140c2.3203 0 4.5469-0.92188 6.1875-2.5625s2.5625-3.8672 2.5625-6.1875v-87.5c-0.015625-13.918-5.5508-27.266-15.391-37.109-9.8438-9.8398-23.191-15.375-37.109-15.391h-0.26953c9.9453-7.3398 16.32-18.547 17.551-30.844 1.2305-12.301-2.7969-24.547-11.09-33.715-8.2969-9.1641-20.082-14.395-32.441-14.395s-24.145 5.2305-32.441 14.395c-8.293 9.168-12.32 21.414-11.09 33.715 1.2305 12.297 7.6055 23.504 17.551 30.844h-0.26953c-13.918 0.015625-27.266 5.5508-37.109 15.391-9.8398 9.8438-15.375 23.191-15.391 37.109v87.5c0 2.3203 0.92188 4.5469 2.5625 6.1875s3.8672 2.5625 6.1875 2.5625zm43.75-183.75c0-6.9609 2.7656-13.641 7.6875-18.562s11.602-7.6875 18.562-7.6875 13.641 2.7656 18.562 7.6875 7.6875 11.602 7.6875 18.562-2.7656 13.641-7.6875 18.562-11.602 7.6875-18.562 7.6875-13.641-2.7656-18.562-7.6875-7.6875-11.602-7.6875-18.562zm-35 87.5c0-9.2812 3.6875-18.184 10.25-24.75 6.5664-6.5625 15.469-10.25 24.75-10.25h52.5c9.2812 0 18.184 3.6875 24.75 10.25 6.5625 6.5664 10.25 15.469 10.25 24.75v78.75h-122.5z"/>
  <path d="m577.5 8.75c-10.082 0.011719-19.852 3.5-27.66 9.875-7.8125 6.375-13.184 15.25-15.215 25.125h-101.5c-18.934-0.019531-37.48 5.3281-53.5 15.418-16.02 10.09-28.852 24.512-37.012 41.598-0.46484 0-0.875-0.14062-1.3633-0.14062-15.629 0-30.074 8.3398-37.887 21.875-7.8164 13.535-7.8164 30.215 0 43.75 7.8125 13.535 22.258 21.875 37.887 21.875 0.46484 0 0.875-0.12109 1.3633-0.14062 8.1602 17.086 20.992 31.508 37.012 41.598 16.02 10.09 34.566 15.438 53.5 15.418 19.586-0.050781 38.758 5.6484 55.137 16.395 16.379 10.742 29.242 26.055 37 44.043-10.543 4.5312-18.883 13.027-23.219 23.652-4.3398 10.625-4.3281 22.527 0.027343 33.145 4.3594 10.617 12.711 19.098 23.262 23.613-7.793 17.973-20.676 33.27-37.062 44.004-16.387 10.734-35.555 16.434-55.145 16.398h-161.88v17.5h161.88c23.629 0.039062 46.727-7.0312 66.281-20.297s34.664-32.109 43.363-54.078c15.297-0.50781 29.211-8.9648 36.703-22.309 7.4922-13.344 7.4648-29.629-0.0625-42.949-7.5312-13.32-21.477-21.738-36.77-22.199-8.6328-21.992-23.707-40.867-43.25-54.148-19.539-13.277-42.637-20.344-66.266-20.27-15.004-0.011719-29.723-4.0859-42.598-11.789-12.879-7.7031-23.43-18.746-30.535-31.961 10.027-4.7031 17.883-13.051 21.965-23.348 4.082-10.293 4.082-21.762 0-32.055-4.082-10.297-11.938-18.645-21.965-23.348 7.1055-13.215 17.656-24.258 30.535-31.961 12.875-7.7031 27.594-11.777 42.598-11.789h101.5c2.2188 10.871 8.4844 20.492 17.531 26.918 9.043 6.4258 20.191 9.1719 31.188 7.6875s21.016-7.0898 28.031-15.684c7.0195-8.5898 10.512-19.531 9.7695-30.602-0.74609-11.07-5.6641-21.441-13.766-29.023-8.1055-7.5781-18.785-11.793-29.879-11.797zm-8.75 336.88c0 6.9609-2.7656 13.641-7.6875 18.562s-11.602 7.6875-18.562 7.6875-13.641-2.7656-18.562-7.6875-7.6875-11.602-7.6875-18.562 2.7656-13.641 7.6875-18.562 11.602-7.6875 18.562-7.6875 13.641 2.7656 18.562 7.6875 7.6875 11.602 7.6875 18.562zm-201.25-201.25c0 6.9609-2.7656 13.641-7.6875 18.562s-11.602 7.6875-18.562 7.6875-13.641-2.7656-18.562-7.6875-7.6875-11.602-7.6875-18.562 2.7656-13.641 7.6875-18.562 11.602-7.6875 18.562-7.6875 13.641 2.7656 18.562 7.6875 7.6875 11.602 7.6875 18.562zm210-65.625c-6.9609 0-13.641-2.7656-18.562-7.6875s-7.6875-11.602-7.6875-18.562 2.7656-13.641 7.6875-18.562 11.602-7.6875 18.562-7.6875 13.641 2.7656 18.562 7.6875 7.6875 11.602 7.6875 18.562-2.7656 13.641-7.6875 18.562-11.602 7.6875-18.562 7.6875z"/>
 </g>
</svg>
